<svg xmlns="http://www.w3.org/2000/svg" xmlns:xlink="http://www.w3.org/1999/xlink" width="1122" zoomAndPan="magnify" viewBox="0 0 841.92 595.499987" height="793" preserveAspectRatio="xMidYMid meet" version="1.0"><defs><clipPath id="id1"><path d="M 0.3125 0 L 841.527344 0 L 841.527344 594.824219 L 0.3125 594.824219 Z M 0.3125 0 " clip-rule="nonzero"/></clipPath><clipPath id="id2"><path d="M 714.871094 326.152344 L 841.527344 326.152344 L 841.527344 577.652344 L 714.871094 577.652344 Z M 714.871094 326.152344 " clip-rule="nonzero"/></clipPath><clipPath id="id3"><path d="M 72.863281 0 L 330.566406 0 L 330.566406 38.273438 L 72.863281 38.273438 Z M 72.863281 0 " clip-rule="nonzero"/></clipPath><clipPath id="id4"><path d="M 0.3125 0 L 62 0 L 62 168 L 0.3125 168 Z M 0.3125 0 " clip-rule="nonzero"/></clipPath><clipPath id="id5"><path d="M 34 153 L 98 153 L 98 216.789062 L 34 216.789062 Z M 34 153 " clip-rule="nonzero"/></clipPath><clipPath id="id6"><path d="M 52 191 L 94 191 L 94 216.789062 L 52 216.789062 Z M 52 191 " clip-rule="nonzero"/></clipPath><clipPath id="id7"><path d="M 0.3125 19 L 51 19 L 51 81 L 0.3125 81 Z M 0.3125 19 " clip-rule="nonzero"/></clipPath><clipPath id="id8"><path d="M 0.3125 63 L 62 63 L 62 128 L 0.3125 128 Z M 0.3125 63 " clip-rule="nonzero"/></clipPath><clipPath id="id9"><path d="M 65 100 L 110.515625 100 L 110.515625 145 L 65 145 Z M 65 100 " clip-rule="nonzero"/></clipPath><clipPath id="id10"><path d="M 0.3125 202 L 9 202 L 9 212 L 0.3125 212 Z M 0.3125 202 " clip-rule="nonzero"/></clipPath><clipPath id="id11"><path d="M 0.3125 4 L 93 4 L 93 177 L 0.3125 177 Z M 0.3125 4 " clip-rule="nonzero"/></clipPath><clipPath id="id12"><path d="M 841 57 L 841.527344 57 L 841.527344 72 L 841 72 Z M 841 57 " clip-rule="nonzero"/></clipPath><clipPath id="id13"><path d="M 783.464844 -181.761719 L 950.316406 -6.515625 L 779.953125 155.6875 L 613.097656 -19.558594 Z M 783.464844 -181.761719 " clip-rule="nonzero"/></clipPath><clipPath id="id14"><path d="M 783.464844 -181.761719 L 950.316406 -6.515625 L 779.953125 155.6875 L 613.097656 -19.558594 Z M 783.464844 -181.761719 " clip-rule="nonzero"/></clipPath><clipPath id="id15"><path d="M 783.464844 -181.761719 L 950.316406 -6.515625 L 779.953125 155.6875 L 613.097656 -19.558594 Z M 783.464844 -181.761719 " clip-rule="nonzero"/></clipPath><clipPath id="id16"><path d="M 767 52 L 780 52 L 780 65 L 767 65 Z M 767 52 " clip-rule="nonzero"/></clipPath><clipPath id="id17"><path d="M 783.464844 -181.761719 L 950.316406 -6.515625 L 779.953125 155.6875 L 613.097656 -19.558594 Z M 783.464844 -181.761719 " clip-rule="nonzero"/></clipPath><clipPath id="id18"><path d="M 783.464844 -181.761719 L 950.316406 -6.515625 L 779.953125 155.6875 L 613.097656 -19.558594 Z M 783.464844 -181.761719 " clip-rule="nonzero"/></clipPath><clipPath id="id19"><path d="M 783.464844 -181.761719 L 950.316406 -6.515625 L 779.953125 155.6875 L 613.097656 -19.558594 Z M 783.464844 -181.761719 " clip-rule="nonzero"/></clipPath><clipPath id="id20"><path d="M 693 20 L 705 20 L 705 32 L 693 32 Z M 693 20 " clip-rule="nonzero"/></clipPath><clipPath id="id21"><path d="M 783.464844 -181.761719 L 950.316406 -6.515625 L 779.953125 155.6875 L 613.097656 -19.558594 Z M 783.464844 -181.761719 " clip-rule="nonzero"/></clipPath><clipPath id="id22"><path d="M 783.464844 -181.761719 L 950.316406 -6.515625 L 779.953125 155.6875 L 613.097656 -19.558594 Z M 783.464844 -181.761719 " clip-rule="nonzero"/></clipPath><clipPath id="id23"><path d="M 783.464844 -181.761719 L 950.316406 -6.515625 L 779.953125 155.6875 L 613.097656 -19.558594 Z M 783.464844 -181.761719 " clip-rule="nonzero"/></clipPath><clipPath id="id24"><path d="M 749 108 L 762 108 L 762 121 L 749 121 Z M 749 108 " clip-rule="nonzero"/></clipPath><clipPath id="id25"><path d="M 783.464844 -181.761719 L 950.316406 -6.515625 L 779.953125 155.6875 L 613.097656 -19.558594 Z M 783.464844 -181.761719 " clip-rule="nonzero"/></clipPath><clipPath id="id26"><path d="M 783.464844 -181.761719 L 950.316406 -6.515625 L 779.953125 155.6875 L 613.097656 -19.558594 Z M 783.464844 -181.761719 " clip-rule="nonzero"/></clipPath><clipPath id="id27"><path d="M 783.464844 -181.761719 L 950.316406 -6.515625 L 779.953125 155.6875 L 613.097656 -19.558594 Z M 783.464844 -181.761719 " clip-rule="nonzero"/></clipPath><clipPath id="id28"><path d="M 790 0 L 841.527344 0 L 841.527344 48 L 790 48 Z M 790 0 " clip-rule="nonzero"/></clipPath><clipPath id="id29"><path d="M 783.464844 -181.761719 L 950.316406 -6.515625 L 779.953125 155.6875 L 613.097656 -19.558594 Z M 783.464844 -181.761719 " clip-rule="nonzero"/></clipPath><clipPath id="id30"><path d="M 783.464844 -181.761719 L 950.316406 -6.515625 L 779.953125 155.6875 L 613.097656 -19.558594 Z M 783.464844 -181.761719 " clip-rule="nonzero"/></clipPath><clipPath id="id31"><path d="M 783.464844 -181.761719 L 950.316406 -6.515625 L 779.953125 155.6875 L 613.097656 -19.558594 Z M 783.464844 -181.761719 " clip-rule="nonzero"/></clipPath><clipPath id="id32"><path d="M 786 90 L 821 90 L 821 125 L 786 125 Z M 786 90 " clip-rule="nonzero"/></clipPath><clipPath id="id33"><path d="M 783.464844 -181.761719 L 950.316406 -6.515625 L 779.953125 155.6875 L 613.097656 -19.558594 Z M 783.464844 -181.761719 " clip-rule="nonzero"/></clipPath><clipPath id="id34"><path d="M 783.464844 -181.761719 L 950.316406 -6.515625 L 779.953125 155.6875 L 613.097656 -19.558594 Z M 783.464844 -181.761719 " clip-rule="nonzero"/></clipPath><clipPath id="id35"><path d="M 783.464844 -181.761719 L 950.316406 -6.515625 L 779.953125 155.6875 L 613.097656 -19.558594 Z M 783.464844 -181.761719 " clip-rule="nonzero"/></clipPath><clipPath id="id36"><path d="M 647 0 L 664 0 L 664 17 L 647 17 Z M 647 0 " clip-rule="nonzero"/></clipPath><clipPath id="id37"><path d="M 783.464844 -181.761719 L 950.316406 -6.515625 L 779.953125 155.6875 L 613.097656 -19.558594 Z M 783.464844 -181.761719 " clip-rule="nonzero"/></clipPath><clipPath id="id38"><path d="M 783.464844 -181.761719 L 950.316406 -6.515625 L 779.953125 155.6875 L 613.097656 -19.558594 Z M 783.464844 -181.761719 " clip-rule="nonzero"/></clipPath><clipPath id="id39"><path d="M 783.464844 -181.761719 L 950.316406 -6.515625 L 779.953125 155.6875 L 613.097656 -19.558594 Z M 783.464844 -181.761719 " clip-rule="nonzero"/></clipPath><clipPath id="id40"><path d="M 714 71 L 734 71 L 734 91 L 714 91 Z M 714 71 " clip-rule="nonzero"/></clipPath><clipPath id="id41"><path d="M 783.464844 -181.761719 L 950.316406 -6.515625 L 779.953125 155.6875 L 613.097656 -19.558594 Z M 783.464844 -181.761719 " clip-rule="nonzero"/></clipPath><clipPath id="id42"><path d="M 783.464844 -181.761719 L 950.316406 -6.515625 L 779.953125 155.6875 L 613.097656 -19.558594 Z M 783.464844 -181.761719 " clip-rule="nonzero"/></clipPath><clipPath id="id43"><path d="M 783.464844 -181.761719 L 950.316406 -6.515625 L 779.953125 155.6875 L 613.097656 -19.558594 Z M 783.464844 -181.761719 " clip-rule="nonzero"/></clipPath><clipPath id="id44"><path d="M 10 481 L 31 481 L 31 502 L 10 502 Z M 10 481 " clip-rule="nonzero"/></clipPath><clipPath id="id45"><path d="M 67.480469 326.152344 L 187.21875 587.71875 L -66.855469 704.027344 L -186.59375 442.460938 Z M 67.480469 326.152344 " clip-rule="nonzero"/></clipPath><clipPath id="id46"><path d="M 67.480469 326.152344 L 187.21875 587.71875 L -66.855469 704.027344 L -186.59375 442.460938 Z M 67.480469 326.152344 " clip-rule="nonzero"/></clipPath><clipPath id="id47"><path d="M 67.480469 326.152344 L 187.21875 587.71875 L -66.855469 704.027344 L -186.59375 442.460938 Z M 67.480469 326.152344 " clip-rule="nonzero"/></clipPath><clipPath id="id48"><path d="M 37 359 L 47 359 L 47 369 L 37 369 Z M 37 359 " clip-rule="nonzero"/></clipPath><clipPath id="id49"><path d="M 67.480469 326.152344 L 187.21875 587.71875 L -66.855469 704.027344 L -186.59375 442.460938 Z M 67.480469 326.152344 " clip-rule="nonzero"/></clipPath><clipPath id="id50"><path d="M 67.480469 326.152344 L 187.21875 587.71875 L -66.855469 704.027344 L -186.59375 442.460938 Z M 67.480469 326.152344 " clip-rule="nonzero"/></clipPath><clipPath id="id51"><path d="M 67.480469 326.152344 L 187.21875 587.71875 L -66.855469 704.027344 L -186.59375 442.460938 Z M 67.480469 326.152344 " clip-rule="nonzero"/></clipPath><clipPath id="id52"><path d="M 143 543 L 159 543 L 159 559 L 143 559 Z M 143 543 " clip-rule="nonzero"/></clipPath><clipPath id="id53"><path d="M 67.480469 326.152344 L 187.21875 587.71875 L -66.855469 704.027344 L -186.59375 442.460938 Z M 67.480469 326.152344 " clip-rule="nonzero"/></clipPath><clipPath id="id54"><path d="M 67.480469 326.152344 L 187.21875 587.71875 L -66.855469 704.027344 L -186.59375 442.460938 Z M 67.480469 326.152344 " clip-rule="nonzero"/></clipPath><clipPath id="id55"><path d="M 67.480469 326.152344 L 187.21875 587.71875 L -66.855469 704.027344 L -186.59375 442.460938 Z M 67.480469 326.152344 " clip-rule="nonzero"/></clipPath><clipPath id="id56"><path d="M 86 419 L 99 419 L 99 432 L 86 432 Z M 86 419 " clip-rule="nonzero"/></clipPath><clipPath id="id57"><path d="M 67.480469 326.152344 L 187.21875 587.71875 L -66.855469 704.027344 L -186.59375 442.460938 Z M 67.480469 326.152344 " clip-rule="nonzero"/></clipPath><clipPath id="id58"><path d="M 67.480469 326.152344 L 187.21875 587.71875 L -66.855469 704.027344 L -186.59375 442.460938 Z M 67.480469 326.152344 " clip-rule="nonzero"/></clipPath><clipPath id="id59"><path d="M 67.480469 326.152344 L 187.21875 587.71875 L -66.855469 704.027344 L -186.59375 442.460938 Z M 67.480469 326.152344 " clip-rule="nonzero"/></clipPath><clipPath id="id60"><path d="M 78 537 L 94 537 L 94 553 L 78 553 Z M 78 537 " clip-rule="nonzero"/></clipPath><clipPath id="id61"><path d="M 67.480469 326.152344 L 187.21875 587.71875 L -66.855469 704.027344 L -186.59375 442.460938 Z M 67.480469 326.152344 " clip-rule="nonzero"/></clipPath><clipPath id="id62"><path d="M 67.480469 326.152344 L 187.21875 587.71875 L -66.855469 704.027344 L -186.59375 442.460938 Z M 67.480469 326.152344 " clip-rule="nonzero"/></clipPath><clipPath id="id63"><path d="M 67.480469 326.152344 L 187.21875 587.71875 L -66.855469 704.027344 L -186.59375 442.460938 Z M 67.480469 326.152344 " clip-rule="nonzero"/></clipPath><clipPath id="id64"><path d="M 0.3125 536 L 57 536 L 57 594.824219 L 0.3125 594.824219 Z M 0.3125 536 " clip-rule="nonzero"/></clipPath><clipPath id="id65"><path d="M 67.480469 326.152344 L 187.21875 587.71875 L -66.855469 704.027344 L -186.59375 442.460938 Z M 67.480469 326.152344 " clip-rule="nonzero"/></clipPath><clipPath id="id66"><path d="M 67.480469 326.152344 L 187.21875 587.71875 L -66.855469 704.027344 L -186.59375 442.460938 Z M 67.480469 326.152344 " clip-rule="nonzero"/></clipPath><clipPath id="id67"><path d="M 67.480469 326.152344 L 187.21875 587.71875 L -66.855469 704.027344 L -186.59375 442.460938 Z M 67.480469 326.152344 " clip-rule="nonzero"/></clipPath><clipPath id="id68"><path d="M 109 575 L 145 575 L 145 594.824219 L 109 594.824219 Z M 109 575 " clip-rule="nonzero"/></clipPath><clipPath id="id69"><path d="M 67.480469 326.152344 L 187.21875 587.71875 L -66.855469 704.027344 L -186.59375 442.460938 Z M 67.480469 326.152344 " clip-rule="nonzero"/></clipPath><clipPath id="id70"><path d="M 67.480469 326.152344 L 187.21875 587.71875 L -66.855469 704.027344 L -186.59375 442.460938 Z M 67.480469 326.152344 " clip-rule="nonzero"/></clipPath><clipPath id="id71"><path d="M 67.480469 326.152344 L 187.21875 587.71875 L -66.855469 704.027344 L -186.59375 442.460938 Z M 67.480469 326.152344 " clip-rule="nonzero"/></clipPath><clipPath id="id72"><path d="M 111 466 L 135 466 L 135 490 L 111 490 Z M 111 466 " clip-rule="nonzero"/></clipPath><clipPath id="id73"><path d="M 67.480469 326.152344 L 187.21875 587.71875 L -66.855469 704.027344 L -186.59375 442.460938 Z M 67.480469 326.152344 " clip-rule="nonzero"/></clipPath><clipPath id="id74"><path d="M 67.480469 326.152344 L 187.21875 587.71875 L -66.855469 704.027344 L -186.59375 442.460938 Z M 67.480469 326.152344 " clip-rule="nonzero"/></clipPath><clipPath id="id75"><path d="M 67.480469 326.152344 L 187.21875 587.71875 L -66.855469 704.027344 L -186.59375 442.460938 Z M 67.480469 326.152344 " clip-rule="nonzero"/></clipPath><clipPath id="id76"><path d="M 25 416 L 49 416 L 49 440 L 25 440 Z M 25 416 " clip-rule="nonzero"/></clipPath><clipPath id="id77"><path d="M 67.480469 326.152344 L 187.21875 587.71875 L -66.855469 704.027344 L -186.59375 442.460938 Z M 67.480469 326.152344 " clip-rule="nonzero"/></clipPath><clipPath id="id78"><path d="M 67.480469 326.152344 L 187.21875 587.71875 L -66.855469 704.027344 L -186.59375 442.460938 Z M 67.480469 326.152344 " clip-rule="nonzero"/></clipPath><clipPath id="id79"><path d="M 67.480469 326.152344 L 187.21875 587.71875 L -66.855469 704.027344 L -186.59375 442.460938 Z M 67.480469 326.152344 " clip-rule="nonzero"/></clipPath><clipPath id="id80"><path d="M 804 524 L 841.527344 524 L 841.527344 564 L 804 564 Z M 804 524 " clip-rule="nonzero"/></clipPath><clipPath id="id81"><path d="M 661.882812 480.246094 L 795.378906 365.476562 L 950.195312 545.554688 L 816.699219 660.324219 Z M 661.882812 480.246094 " clip-rule="nonzero"/></clipPath><clipPath id="id82"><path d="M 661.882812 480.246094 L 795.378906 365.476562 L 950.195312 545.554688 L 816.699219 660.324219 Z M 661.882812 480.246094 " clip-rule="nonzero"/></clipPath><clipPath id="id83"><path d="M 661.882812 480.246094 L 795.378906 365.476562 L 950.195312 545.554688 L 816.699219 660.324219 Z M 661.882812 480.246094 " clip-rule="nonzero"/></clipPath><clipPath id="id84"><path d="M 801 477 L 841.527344 477 L 841.527344 512 L 801 512 Z M 801 477 " clip-rule="nonzero"/></clipPath><clipPath id="id85"><path d="M 661.882812 480.246094 L 795.378906 365.476562 L 950.195312 545.554688 L 816.699219 660.324219 Z M 661.882812 480.246094 " clip-rule="nonzero"/></clipPath><clipPath id="id86"><path d="M 661.882812 480.246094 L 795.378906 365.476562 L 950.195312 545.554688 L 816.699219 660.324219 Z M 661.882812 480.246094 " clip-rule="nonzero"/></clipPath><clipPath id="id87"><path d="M 661.882812 480.246094 L 795.378906 365.476562 L 950.195312 545.554688 L 816.699219 660.324219 Z M 661.882812 480.246094 " clip-rule="nonzero"/></clipPath><clipPath id="id88"><path d="M 760 512 L 792 512 L 792 568 L 760 568 Z M 760 512 " clip-rule="nonzero"/></clipPath><clipPath id="id89"><path d="M 661.882812 480.246094 L 795.378906 365.476562 L 950.195312 545.554688 L 816.699219 660.324219 Z M 661.882812 480.246094 " clip-rule="nonzero"/></clipPath><clipPath id="id90"><path d="M 661.882812 480.246094 L 795.378906 365.476562 L 950.195312 545.554688 L 816.699219 660.324219 Z M 661.882812 480.246094 " clip-rule="nonzero"/></clipPath><clipPath id="id91"><path d="M 661.882812 480.246094 L 795.378906 365.476562 L 950.195312 545.554688 L 816.699219 660.324219 Z M 661.882812 480.246094 " clip-rule="nonzero"/></clipPath><clipPath id="id92"><path d="M 721 426 L 833 426 L 833 549 L 721 549 Z M 721 426 " clip-rule="nonzero"/></clipPath><clipPath id="id93"><path d="M 661.882812 480.246094 L 795.378906 365.476562 L 950.195312 545.554688 L 816.699219 660.324219 Z M 661.882812 480.246094 " clip-rule="nonzero"/></clipPath><clipPath id="id94"><path d="M 661.882812 480.246094 L 795.378906 365.476562 L 950.195312 545.554688 L 816.699219 660.324219 Z M 661.882812 480.246094 " clip-rule="nonzero"/></clipPath><clipPath id="id95"><path d="M 661.882812 480.246094 L 795.378906 365.476562 L 950.195312 545.554688 L 816.699219 660.324219 Z M 661.882812 480.246094 " clip-rule="nonzero"/></clipPath><clipPath id="id96"><path d="M 721 426 L 756 426 L 756 460 L 721 460 Z M 721 426 " clip-rule="nonzero"/></clipPath><clipPath id="id97"><path d="M 661.882812 480.246094 L 795.378906 365.476562 L 950.195312 545.554688 L 816.699219 660.324219 Z M 661.882812 480.246094 " clip-rule="nonzero"/></clipPath><clipPath id="id98"><path d="M 661.882812 480.246094 L 795.378906 365.476562 L 950.195312 545.554688 L 816.699219 660.324219 Z M 661.882812 480.246094 " clip-rule="nonzero"/></clipPath><clipPath id="id99"><path d="M 661.882812 480.246094 L 795.378906 365.476562 L 950.195312 545.554688 L 816.699219 660.324219 Z M 661.882812 480.246094 " clip-rule="nonzero"/></clipPath><clipPath id="id100"><path d="M 745 454 L 772 454 L 772 482 L 745 482 Z M 745 454 " clip-rule="nonzero"/></clipPath><clipPath id="id101"><path d="M 661.882812 480.246094 L 795.378906 365.476562 L 950.195312 545.554688 L 816.699219 660.324219 Z M 661.882812 480.246094 " clip-rule="nonzero"/></clipPath><clipPath id="id102"><path d="M 661.882812 480.246094 L 795.378906 365.476562 L 950.195312 545.554688 L 816.699219 660.324219 Z M 661.882812 480.246094 " clip-rule="nonzero"/></clipPath><clipPath id="id103"><path d="M 661.882812 480.246094 L 795.378906 365.476562 L 950.195312 545.554688 L 816.699219 660.324219 Z M 661.882812 480.246094 " clip-rule="nonzero"/></clipPath><clipPath id="id104"><path d="M 792 583 L 805 583 L 805 594.824219 L 792 594.824219 Z M 792 583 " clip-rule="nonzero"/></clipPath><clipPath id="id105"><path d="M 661.882812 480.246094 L 795.378906 365.476562 L 950.195312 545.554688 L 816.699219 660.324219 Z M 661.882812 480.246094 " clip-rule="nonzero"/></clipPath><clipPath id="id106"><path d="M 661.882812 480.246094 L 795.378906 365.476562 L 950.195312 545.554688 L 816.699219 660.324219 Z M 661.882812 480.246094 " clip-rule="nonzero"/></clipPath><clipPath id="id107"><path d="M 661.882812 480.246094 L 795.378906 365.476562 L 950.195312 545.554688 L 816.699219 660.324219 Z M 661.882812 480.246094 " clip-rule="nonzero"/></clipPath><clipPath id="id108"><path d="M 808 542 L 841.527344 542 L 841.527344 594.824219 L 808 594.824219 Z M 808 542 " clip-rule="nonzero"/></clipPath><clipPath id="id109"><path d="M 661.882812 480.246094 L 795.378906 365.476562 L 950.195312 545.554688 L 816.699219 660.324219 Z M 661.882812 480.246094 " clip-rule="nonzero"/></clipPath><clipPath id="id110"><path d="M 661.882812 480.246094 L 795.378906 365.476562 L 950.195312 545.554688 L 816.699219 660.324219 Z M 661.882812 480.246094 " clip-rule="nonzero"/></clipPath><clipPath id="id111"><path d="M 661.882812 480.246094 L 795.378906 365.476562 L 950.195312 545.554688 L 816.699219 660.324219 Z M 661.882812 480.246094 " clip-rule="nonzero"/></clipPath><clipPath id="id112"><path d="M 832 553 L 841.527344 553 L 841.527344 579 L 832 579 Z M 832 553 " clip-rule="nonzero"/></clipPath><clipPath id="id113"><path d="M 661.882812 480.246094 L 795.378906 365.476562 L 950.195312 545.554688 L 816.699219 660.324219 Z M 661.882812 480.246094 " clip-rule="nonzero"/></clipPath><clipPath id="id114"><path d="M 661.882812 480.246094 L 795.378906 365.476562 L 950.195312 545.554688 L 816.699219 660.324219 Z M 661.882812 480.246094 " clip-rule="nonzero"/></clipPath><clipPath id="id115"><path d="M 661.882812 480.246094 L 795.378906 365.476562 L 950.195312 545.554688 L 816.699219 660.324219 Z M 661.882812 480.246094 " clip-rule="nonzero"/></clipPath><clipPath id="id116"><path d="M 510.875 453.21875 L 680.183594 453.21875 L 680.183594 455.464844 L 510.875 455.464844 Z M 510.875 453.21875 " clip-rule="nonzero"/></clipPath><clipPath id="id117"><path d="M 160.851562 453.21875 L 330.15625 453.21875 L 330.15625 455.464844 L 160.851562 455.464844 Z M 160.851562 453.21875 " clip-rule="nonzero"/></clipPath><clipPath id="id118"><path d="M 388.015625 419.273438 L 453.191406 419.273438 L 453.191406 484.449219 L 388.015625 484.449219 Z M 388.015625 419.273438 " clip-rule="nonzero"/></clipPath></defs><g clip-path="url(#id1)"><path fill="#ffffff" d="M 0.3125 0 L 841.605469 0 L 841.605469 594.824219 L 0.3125 594.824219 Z M 0.3125 0 " fill-opacity="1" fill-rule="nonzero"/><path fill="#281a30" d="M 0.3125 0 L 841.605469 0 L 841.605469 594.824219 L 0.3125 594.824219 Z M 0.3125 0 " fill-opacity="1" fill-rule="nonzero"/></g><g clip-path="url(#id2)"><path fill="#eda931" d="M 815.558594 565.335938 C 790.40625 586.382812 752.179688 579.515625 734.378906 551.960938 C 710.085938 514.371094 701.414062 494.847656 750.699219 423.496094 C 785.761719 372.730469 792.671875 326.152344 832.703125 326.152344 C 1000.375 326.152344 1061.230469 536.558594 929.925781 536.558594 C 885.269531 536.558594 869.707031 506.640625 819.867188 561.273438 C 818.625 562.632812 817.183594 563.996094 815.558594 565.335938 " fill-opacity="1" fill-rule="nonzero"/></g><g clip-path="url(#id3)"><path fill="#f6faf7" d="M 137.148438 -27.335938 C 163.425781 -27.335938 196.027344 -22.855469 226.0625 16.289062 C 232.902344 25.203125 242.886719 30.808594 254.171875 32.082031 C 265.613281 33.371094 276.785156 30.054688 285.613281 22.746094 L 287.507812 25.019531 L 285.613281 22.746094 C 304.171875 7.375 326.003906 -16.453125 324.585938 -42.671875 C 323.644531 -60.117188 312.363281 -76.09375 291.058594 -90.160156 C 266.957031 -106.078125 255.792969 -129.976562 245.949219 -151.066406 C 235.195312 -174.09375 226.695312 -192.277344 205.296875 -192.277344 C 199.949219 -192.277344 194.28125 -190.550781 187.101562 -188.359375 C 182.167969 -186.855469 176.578125 -185.152344 169.777344 -183.578125 C 160.949219 -181.535156 151.992188 -180.640625 143.339844 -179.785156 C 114.359375 -176.910156 91.46875 -174.625 85.023438 -134.511719 C 75.953125 -78.199219 76.738281 -47.578125 87.585938 -35.207031 C 95.398438 -26.292969 108.613281 -26.664062 125.351562 -27.125 C 129.109375 -27.226562 133.054688 -27.335938 137.148438 -27.335938 Z M 259.019531 38.273438 C 257.191406 38.273438 255.351562 38.175781 253.507812 37.96875 C 240.609375 36.515625 229.191406 30.09375 221.363281 19.898438 C 188.484375 -22.9375 153.582031 -21.984375 125.519531 -21.203125 C 107.957031 -20.71875 92.78125 -20.300781 83.132812 -31.304688 C 70.847656 -45.304688 69.660156 -76.457031 79.164062 -135.453125 C 86.34375 -180.070312 113.742188 -182.792969 142.75 -185.675781 C 151.21875 -186.519531 159.980469 -187.390625 168.441406 -189.347656 C 175.042969 -190.875 180.53125 -192.546875 185.371094 -194.027344 C 193.023438 -196.359375 199.066406 -198.199219 205.296875 -198.199219 C 230.480469 -198.199219 240.136719 -177.519531 251.316406 -153.574219 C 260.835938 -133.191406 271.617188 -110.097656 294.332031 -95.105469 C 317.28125 -79.945312 329.457031 -62.40625 330.507812 -42.996094 C 331.734375 -20.292969 317.519531 4.011719 289.398438 27.300781 C 280.742188 34.472656 270.113281 38.273438 259.019531 38.273438 " fill-opacity="1" fill-rule="nonzero"/></g><g clip-path="url(#id4)"><path fill="#9362f5" d="M 61.535156 82.714844 C 61.535156 83.460938 61.535156 84.191406 61.484375 84.9375 C 61.449219 85.597656 61.449219 86.222656 61.398438 86.898438 C 61.398438 87.472656 61.363281 88.042969 61.308594 88.632812 C 58.285156 132.480469 21.636719 167.140625 -23.066406 167.140625 C -32.371094 167.140625 -41.328125 165.632812 -49.695312 162.871094 C -53.574219 161.589844 -57.3125 160.027344 -60.914062 158.253906 C -76.183594 150.566406 -88.828125 138.433594 -97.023438 123.503906 C -97.597656 122.566406 -98.101562 121.648438 -98.585938 120.660156 C -100.988281 115.988281 -102.953125 111.027344 -104.414062 105.90625 C -104.589844 105.296875 -104.78125 104.671875 -104.953125 104.046875 C -105.179688 103.164062 -105.386719 102.261719 -105.527344 101.375 C -106.378906 97.867188 -106.953125 94.277344 -107.265625 90.578125 C -107.527344 88.007812 -107.667969 85.386719 -107.667969 82.714844 C -107.667969 82.054688 -107.667969 81.378906 -107.613281 80.71875 C -107.613281 80.492188 -107.613281 80.269531 -107.582031 80.042969 C -107.441406 74.054688 -106.640625 68.222656 -105.265625 62.632812 C -105.214844 62.460938 -105.179688 62.269531 -105.128906 62.09375 C -95.910156 25.433594 -62.652344 -1.710938 -23.066406 -1.710938 C -6.507812 -1.710938 8.957031 3.042969 22 11.253906 C 24.089844 12.554688 26.089844 13.980469 28.054688 15.4375 C 28.992188 16.148438 29.878906 16.859375 30.765625 17.574219 C 31.621094 18.285156 32.453125 18.996094 33.308594 19.757812 C 39.132812 24.949219 44.210938 30.957031 48.402344 37.621094 C 49.203125 38.851562 49.953125 40.101562 50.664062 41.351562 C 54.40625 48.019531 57.308594 55.203125 59.171875 62.804688 C 59.257812 63.207031 59.363281 63.570312 59.449219 63.96875 C 60.335938 67.824219 60.960938 71.78125 61.273438 75.824219 C 61.449219 78.097656 61.535156 80.40625 61.535156 82.714844 " fill-opacity="1" fill-rule="nonzero"/></g><g clip-path="url(#id5)"><path fill="#50b4f8" d="M 97.15625 184.917969 C 97.15625 189.933594 95.992188 194.601562 93.871094 198.785156 C 88.792969 208.992188 78.234375 216.019531 65.988281 216.019531 C 61.171875 216.019531 56.683594 214.960938 52.628906 213 C 43.550781 208.730469 36.960938 200.242188 35.273438 190.070312 C 34.960938 188.386719 34.820312 186.6875 34.820312 184.917969 C 34.820312 167.714844 48.753906 153.8125 65.988281 153.8125 C 78.632812 153.8125 89.503906 161.277344 94.359375 172.070312 C 96.183594 175.976562 97.15625 180.335938 97.15625 184.917969 " fill-opacity="1" fill-rule="nonzero"/></g><path fill="#c8d952" d="M 94.359375 172.070312 L 84.375 178.5625 L 70.617188 169.417969 L 56.855469 173.980469 L 52.265625 187.675781 L 35.273438 190.070312 C 34.960938 188.386719 34.820312 186.6875 34.820312 184.917969 C 34.820312 167.714844 48.753906 153.8125 65.988281 153.8125 C 78.632812 153.8125 89.503906 161.277344 94.359375 172.070312 " fill-opacity="1" fill-rule="nonzero"/><g clip-path="url(#id6)"><path fill="#c8d952" d="M 93.871094 198.785156 C 88.792969 208.992188 78.234375 216.019531 65.988281 216.019531 C 61.171875 216.019531 56.683594 214.960938 52.628906 213 L 66.5625 205.050781 L 71.015625 191.722656 L 79.921875 196.164062 L 93.871094 198.785156 " fill-opacity="1" fill-rule="nonzero"/></g><g clip-path="url(#id7)"><path fill="#d0bafa" d="M 50.664062 41.351562 C 41.550781 42.949219 30.417969 43.089844 17.546875 48.453125 C -2.890625 57.027344 2.171875 69.835938 -18.300781 69.835938 C -56.375 69.835938 -76.5 73.515625 -107.582031 80.042969 C -107.441406 74.054688 -106.640625 68.222656 -105.265625 62.632812 C -90.882812 59.4375 -75.125 52.773438 -48.980469 52.773438 C -28.542969 52.773438 -33.625 31.390625 -8.054688 31.390625 C 5.25 31.390625 20.488281 26.199219 33.308594 19.757812 C 39.132812 24.949219 44.210938 30.957031 48.402344 37.621094 C 49.203125 38.851562 49.953125 40.101562 50.664062 41.351562 " fill-opacity="1" fill-rule="nonzero"/></g><g clip-path="url(#id8)"><path fill="#d0bafa" d="M 61.535156 82.714844 C 61.535156 83.460938 61.535156 84.191406 61.484375 84.9375 C 61.449219 85.597656 61.449219 86.222656 61.398438 86.898438 C 51.691406 87.820312 41.132812 90.855469 33.046875 98.492188 C 12.957031 117.605469 8.417969 112.847656 -17.1875 112.847656 C -47.382812 112.847656 -42.355469 127.152344 -57.398438 127.152344 C -73.734375 127.152344 -83.578125 120.710938 -97.023438 123.503906 C -97.597656 122.566406 -98.101562 121.648438 -98.585938 120.660156 C -100.988281 115.988281 -102.953125 111.027344 -104.414062 105.90625 C -83.628906 100.4375 -52.09375 93.738281 -22.214844 93.738281 C 28.054688 93.738281 7.929688 65.113281 43.097656 65.113281 C 49.152344 65.113281 54.597656 64.679688 59.449219 63.96875 C 60.335938 67.824219 60.960938 71.78125 61.273438 75.824219 C 61.449219 78.097656 61.535156 80.40625 61.535156 82.714844 " fill-opacity="1" fill-rule="nonzero"/></g><g clip-path="url(#id9)"><path fill="#d9176c" d="M 88.253906 127.289062 C 86.949219 125.554688 85.398438 124.007812 83.660156 122.707031 C 85.398438 121.40625 86.949219 119.859375 88.253906 118.125 C 89.558594 119.859375 91.105469 121.40625 92.84375 122.707031 C 91.105469 124.007812 89.558594 125.554688 88.253906 127.289062 Z M 106.0625 118.261719 C 98.6875 118.261719 92.707031 112.292969 92.707031 104.933594 C 92.707031 102.484375 90.703125 100.488281 88.253906 100.488281 C 85.800781 100.488281 83.800781 102.484375 83.800781 104.933594 C 83.800781 112.292969 77.816406 118.261719 70.441406 118.261719 C 67.988281 118.261719 65.988281 120.261719 65.988281 122.707031 C 65.988281 125.15625 67.988281 127.152344 70.441406 127.152344 C 77.816406 127.152344 83.800781 133.121094 83.800781 140.480469 C 83.800781 142.929688 85.800781 144.925781 88.253906 144.925781 C 90.703125 144.925781 92.707031 142.929688 92.707031 140.480469 C 92.707031 133.121094 98.6875 127.152344 106.0625 127.152344 C 108.515625 127.152344 110.515625 125.15625 110.515625 122.707031 C 110.515625 120.261719 108.515625 118.261719 106.0625 118.261719 " fill-opacity="1" fill-rule="nonzero"/></g><g clip-path="url(#id10)"><path fill="#8ec13f" d="M 8.105469 211.578125 L -0.800781 211.578125 L -0.800781 202.691406 L 8.105469 202.691406 L 8.105469 211.578125 " fill-opacity="1" fill-rule="nonzero"/></g><g clip-path="url(#id11)"><path fill="#91cdf2" d="M 61.308594 88.632812 C 47.863281 103.371094 30.140625 118.488281 8.46875 132.53125 C -10.421875 144.75 -30.597656 155.234375 -49.695312 162.871094 C -59.226562 166.691406 -68.445312 169.816406 -77.125 172.070312 C -88.378906 175.058594 -98.273438 176.515625 -106.640625 176.515625 C -120.398438 176.515625 -130.105469 172.523438 -135.234375 164.695312 C -146.542969 147.199219 -129.566406 115.242188 -107.265625 90.578125 C -106.953125 94.277344 -106.378906 97.867188 -105.527344 101.375 C -125.476562 125.101562 -135.132812 149.507812 -128.191406 160.113281 C -122.3125 169.226562 -104.464844 170.613281 -79.210938 164.035156 C -73.332031 162.527344 -67.226562 160.5625 -60.914062 158.253906 C -40.023438 150.703125 -17.238281 139.230469 3.910156 125.554688 C 26.976562 110.625 46.925781 92.886719 61.273438 75.824219 C 80.773438 52.632812 89.851562 30.675781 82.058594 18.734375 C 75.554688 8.738281 51.882812 12.332031 30.765625 17.574219 C 29.878906 16.859375 28.992188 16.148438 28.054688 15.4375 C 26.089844 13.980469 24.089844 12.554688 22 11.253906 C 51.378906 3.355469 79.121094 -1.140625 89.105469 14.207031 C 98.933594 29.339844 89.050781 58.277344 61.308594 88.632812 " fill-opacity="1" fill-rule="nonzero"/></g><g clip-path="url(#id12)"><g clip-path="url(#id13)"><g clip-path="url(#id14)"><g clip-path="url(#id15)"><path fill="#4b426f" d="M 852.597656 69.648438 C 849.871094 72.246094 845.558594 72.140625 842.960938 69.410156 C 840.367188 66.6875 840.476562 62.375 843.203125 59.78125 C 845.929688 57.183594 850.238281 57.289062 852.832031 60.011719 C 855.433594 62.742188 855.324219 67.054688 852.597656 69.648438 " fill-opacity="1" fill-rule="nonzero"/></g></g></g></g><g clip-path="url(#id16)"><g clip-path="url(#id17)"><g clip-path="url(#id18)"><g clip-path="url(#id19)"><path fill="#3d3252" d="M 777.695312 62.523438 C 775.316406 64.789062 771.542969 64.699219 769.273438 62.316406 C 767.003906 59.933594 767.097656 56.160156 769.480469 53.894531 C 771.863281 51.621094 775.636719 51.714844 777.90625 54.097656 C 780.175781 56.480469 780.082031 60.253906 777.695312 62.523438 " fill-opacity="1" fill-rule="nonzero"/></g></g></g></g><g clip-path="url(#id20)"><g clip-path="url(#id21)"><g clip-path="url(#id22)"><g clip-path="url(#id23)"><path fill="#4b426f" d="M 703.273438 29.734375 C 701.046875 31.855469 697.519531 31.769531 695.402344 29.542969 C 693.285156 27.324219 693.375 23.796875 695.601562 21.675781 C 697.824219 19.558594 701.351562 19.644531 703.464844 21.863281 C 705.585938 24.089844 705.496094 27.617188 703.273438 29.734375 " fill-opacity="1" fill-rule="nonzero"/></g></g></g></g><g clip-path="url(#id24)"><g clip-path="url(#id25)"><g clip-path="url(#id26)"><g clip-path="url(#id27)"><path fill="#4b426f" d="M 759.90625 118.84375 C 757.546875 121.089844 753.800781 121 751.554688 118.640625 C 749.300781 116.277344 749.394531 112.527344 751.757812 110.28125 C 754.125 108.027344 757.871094 108.117188 760.125 110.484375 C 762.367188 112.839844 762.273438 116.589844 759.90625 118.84375 " fill-opacity="1" fill-rule="nonzero"/></g></g></g></g><g clip-path="url(#id28)"><g clip-path="url(#id29)"><g clip-path="url(#id30)"><g clip-path="url(#id31)"><path fill="#f2535c" d="M 833.9375 40.203125 C 823.554688 50.089844 807.128906 49.695312 797.253906 39.320312 C 787.378906 28.949219 787.796875 12.53125 798.179688 2.644531 C 808.5625 -7.238281 824.980469 -6.851562 834.855469 3.523438 C 844.730469 13.894531 844.320312 30.320312 833.9375 40.203125 " fill-opacity="1" fill-rule="nonzero"/></g></g></g></g><g clip-path="url(#id32)"><g clip-path="url(#id33)"><g clip-path="url(#id34)"><g clip-path="url(#id35)"><path fill="#fbcb65" d="M 817.707031 99.34375 L 816.238281 103.359375 C 815.753906 104.667969 815.953125 106.136719 816.761719 107.273438 L 819.230469 110.761719 C 821.265625 113.632812 819.113281 117.601562 815.59375 117.472656 L 811.328125 117.3125 C 809.933594 117.261719 808.597656 117.898438 807.757812 119.023438 L 805.207031 122.445312 C 803.101562 125.277344 798.667969 124.464844 797.707031 121.074219 L 796.535156 116.96875 C 796.152344 115.621094 795.132812 114.550781 793.8125 114.109375 L 789.765625 112.734375 C 786.425781 111.609375 785.835938 107.144531 788.765625 105.179688 L 792.304688 102.792969 C 793.476562 102.015625 794.175781 100.710938 794.195312 99.316406 L 794.246094 95.046875 C 794.285156 91.519531 798.359375 89.574219 801.125 91.746094 L 804.484375 94.378906 C 805.585938 95.246094 807.042969 95.515625 808.375 95.097656 L 812.449219 93.820312 C 815.820312 92.769531 818.929688 96.035156 817.707031 99.34375 " fill-opacity="1" fill-rule="nonzero"/></g></g></g></g><g clip-path="url(#id36)"><g clip-path="url(#id37)"><g clip-path="url(#id38)"><g clip-path="url(#id39)"><path fill="#fbcb65" d="M 663.03125 3.640625 L 661.53125 8.316406 C 661.40625 8.6875 661.402344 9.089844 661.503906 9.460938 L 662.761719 14.210938 C 663.175781 15.769531 661.710938 17.164062 660.167969 16.679688 L 655.488281 15.183594 C 655.125 15.066406 654.71875 15.054688 654.347656 15.15625 L 649.601562 16.425781 C 648.042969 16.84375 646.640625 15.371094 647.132812 13.832031 L 648.632812 9.15625 C 648.75 8.785156 648.765625 8.382812 648.65625 8.007812 L 647.398438 3.269531 C 646.988281 1.703125 648.457031 0.308594 649.992188 0.800781 L 654.667969 2.28125 C 655.042969 2.40625 655.433594 2.417969 655.816406 2.316406 L 660.5625 1.046875 C 662.117188 0.636719 663.519531 2.109375 663.03125 3.640625 " fill-opacity="1" fill-rule="nonzero"/></g></g></g></g><g clip-path="url(#id40)"><g clip-path="url(#id41)"><g clip-path="url(#id42)"><g clip-path="url(#id43)"><path fill="#67cbb4" d="M 730.738281 88.203125 C 726.925781 91.828125 720.902344 91.679688 717.277344 87.871094 C 713.65625 84.066406 713.804688 78.046875 717.613281 74.421875 C 721.429688 70.789062 727.449219 70.933594 731.074219 74.738281 C 734.695312 78.542969 734.550781 84.570312 730.738281 88.203125 " fill-opacity="1" fill-rule="nonzero"/></g></g></g></g><g clip-path="url(#id44)"><g clip-path="url(#id45)"><g clip-path="url(#id46)"><g clip-path="url(#id47)"><path fill="#3d3252" d="M 24.582031 500.371094 C 19.652344 502.628906 13.851562 500.472656 11.597656 495.550781 C 9.34375 490.621094 11.5 484.820312 16.429688 482.5625 C 21.351562 480.308594 27.15625 482.46875 29.410156 487.398438 C 31.664062 492.316406 29.503906 498.121094 24.582031 500.371094 " fill-opacity="1" fill-rule="nonzero"/></g></g></g></g><g clip-path="url(#id48)"><g clip-path="url(#id49)"><g clip-path="url(#id50)"><g clip-path="url(#id51)"><path fill="#4b426f" d="M 43.710938 368.109375 C 41.390625 369.171875 38.652344 368.152344 37.589844 365.835938 C 36.53125 363.515625 37.546875 360.777344 39.867188 359.71875 C 42.1875 358.65625 44.921875 359.671875 45.984375 361.992188 C 47.046875 364.3125 46.027344 367.046875 43.710938 368.109375 " fill-opacity="1" fill-rule="nonzero"/></g></g></g></g><g clip-path="url(#id52)"><g clip-path="url(#id53)"><g clip-path="url(#id54)"><g clip-path="url(#id55)"><path fill="#3d3252" d="M 154.082031 557.910156 C 150.324219 559.628906 145.875 557.976562 144.160156 554.230469 C 142.441406 550.476562 144.097656 546.027344 147.855469 544.308594 C 151.609375 542.585938 156.046875 544.246094 157.769531 548 C 159.480469 551.746094 157.835938 556.191406 154.082031 557.910156 " fill-opacity="1" fill-rule="nonzero"/></g></g></g></g><g clip-path="url(#id56)"><g clip-path="url(#id57)"><g clip-path="url(#id58)"><g clip-path="url(#id59)"><path fill="#4b426f" d="M 94.925781 431.09375 C 91.882812 432.488281 88.289062 431.15625 86.890625 428.105469 C 85.5 425.066406 86.84375 421.472656 89.886719 420.082031 C 92.925781 418.6875 96.523438 420.019531 97.914062 423.058594 C 99.3125 426.113281 97.96875 429.703125 94.925781 431.09375 " fill-opacity="1" fill-rule="nonzero"/></g></g></g></g><g clip-path="url(#id60)"><g clip-path="url(#id61)"><g clip-path="url(#id62)"><g clip-path="url(#id63)"><path fill="#4b426f" d="M 89.175781 551.839844 C 85.402344 553.566406 80.945312 551.917969 79.21875 548.144531 C 77.488281 544.367188 79.148438 539.90625 82.925781 538.179688 C 86.699219 536.453125 91.160156 538.109375 92.886719 541.886719 C 94.617188 545.660156 92.953125 550.113281 89.175781 551.839844 " fill-opacity="1" fill-rule="nonzero"/></g></g></g></g><g clip-path="url(#id64)"><g clip-path="url(#id65)"><g clip-path="url(#id66)"><g clip-path="url(#id67)"><path fill="#f2535c" d="M 38.417969 595.152344 C 22.9375 602.242188 4.636719 595.433594 -2.453125 579.953125 C -9.539062 564.472656 -2.726562 546.179688 12.757812 539.09375 C 28.242188 532.003906 46.535156 538.800781 53.625 554.285156 C 60.710938 569.765625 53.902344 588.066406 38.417969 595.152344 " fill-opacity="1" fill-rule="nonzero"/></g></g></g></g><g clip-path="url(#id68)"><g clip-path="url(#id69)"><g clip-path="url(#id70)"><g clip-path="url(#id71)"><path fill="#f7a43c" d="M 144.183594 589.230469 L 138.824219 596.429688 C 138.394531 597.003906 138.136719 597.6875 138.085938 598.390625 L 137.449219 607.347656 C 137.238281 610.285156 133.859375 611.832031 131.496094 610.074219 L 124.300781 604.703125 C 123.734375 604.28125 123.050781 604.027344 122.34375 603.972656 L 113.382812 603.328125 C 110.4375 603.121094 108.894531 599.75 110.664062 597.386719 L 116.03125 590.183594 C 116.453125 589.613281 116.707031 588.929688 116.757812 588.226562 L 117.394531 579.269531 C 117.609375 576.332031 120.988281 574.785156 123.347656 576.542969 L 130.542969 581.914062 C 131.109375 582.335938 131.796875 582.589844 132.511719 582.640625 L 141.460938 583.289062 C 144.40625 583.496094 145.949219 586.867188 144.183594 589.230469 " fill-opacity="1" fill-rule="nonzero"/></g></g></g></g><g clip-path="url(#id72)"><g clip-path="url(#id73)"><g clip-path="url(#id74)"><g clip-path="url(#id75)"><path fill="#fbcb65" d="M 133.917969 475.113281 L 130.351562 479.878906 C 130.074219 480.257812 129.90625 480.707031 129.871094 481.179688 L 129.453125 487.117188 C 129.3125 489.066406 127.078125 490.089844 125.507812 488.921875 L 120.734375 485.359375 C 120.355469 485.082031 119.902344 484.914062 119.433594 484.878906 L 113.503906 484.457031 C 111.546875 484.320312 110.519531 482.078125 111.695312 480.503906 L 115.25 475.742188 C 115.53125 475.363281 115.699219 474.914062 115.734375 474.441406 L 116.160156 468.5 C 116.300781 466.550781 118.539062 465.527344 120.105469 466.695312 L 124.871094 470.261719 C 125.25 470.542969 125.703125 470.710938 126.171875 470.742188 L 132.109375 471.160156 C 134.058594 471.300781 135.085938 473.542969 133.917969 475.113281 " fill-opacity="1" fill-rule="nonzero"/></g></g></g></g><g clip-path="url(#id76)"><g clip-path="url(#id77)"><g clip-path="url(#id78)"><g clip-path="url(#id79)"><path fill="#f03678" d="M 41.472656 438.222656 C 35.792969 440.824219 29.085938 438.332031 26.484375 432.648438 C 23.882812 426.96875 26.375 420.253906 32.054688 417.652344 C 37.738281 415.054688 44.457031 417.550781 47.058594 423.234375 C 49.65625 428.914062 47.152344 435.625 41.472656 438.222656 " fill-opacity="1" fill-rule="nonzero"/></g></g></g></g><g clip-path="url(#id80)"><g clip-path="url(#id81)"><g clip-path="url(#id82)"><g clip-path="url(#id83)"><path fill="#3d3252" d="M 843.109375 534.226562 L 826.4375 526.015625 L 826.433594 526.023438 L 825.105469 524.480469 L 804.691406 542.027344 L 806.019531 543.574219 L 811.628906 561.292969 C 812.207031 563.269531 814.546875 564.28125 815.886719 563.128906 L 844.289062 538.710938 C 845.628906 537.558594 844.980469 535.097656 843.109375 534.226562 " fill-opacity="1" fill-rule="nonzero"/></g></g></g></g><g clip-path="url(#id84)"><g clip-path="url(#id85)"><g clip-path="url(#id86)"><g clip-path="url(#id87)"><path fill="#f0384b" d="M 838.757812 486.902344 C 830.605469 483.878906 805.242188 477 805.242188 477 L 801.609375 480.125 L 828.914062 511.886719 L 830.734375 510.320312 L 853.34375 506.023438 C 854.695312 505.332031 854.800781 503.042969 853.5625 501.28125 C 853.5625 501.28125 842.355469 488.246094 838.757812 486.902344 " fill-opacity="1" fill-rule="nonzero"/></g></g></g></g><g clip-path="url(#id88)"><g clip-path="url(#id89)"><g clip-path="url(#id90)"><g clip-path="url(#id91)"><path fill="#f0384b" d="M 765.582031 549.8125 C 763.816406 541.296875 760.820312 515.1875 760.820312 515.1875 L 764.453125 512.066406 L 791.761719 543.828125 L 789.941406 545.390625 L 782.300781 567.101562 C 781.414062 568.332031 779.132812 568.09375 777.578125 566.605469 C 777.578125 566.605469 766.371094 553.570312 765.582031 549.8125 " fill-opacity="1" fill-rule="nonzero"/></g></g></g></g><g clip-path="url(#id92)"><g clip-path="url(#id93)"><g clip-path="url(#id94)"><g clip-path="url(#id95)"><path fill="#e0edf9" d="M 727.171875 426.203125 C 725.925781 426.160156 724.753906 426.601562 723.867188 427.367188 C 722.976562 428.128906 722.363281 429.21875 722.222656 430.460938 C 719.703125 452.625 723.566406 475.144531 746.292969 499.964844 C 756.929688 511.574219 789.847656 545.46875 789.847656 545.46875 C 793.382812 549.164062 799.191406 549.445312 803.074219 546.101562 L 829.378906 523.492188 C 833.261719 520.152344 833.859375 514.371094 830.734375 510.320312 C 830.734375 510.320312 802.160156 472.6875 792.28125 460.429688 C 771.148438 434.238281 749.460938 427.039062 727.171875 426.203125 " fill-opacity="1" fill-rule="nonzero"/><path fill="#e0edf9" d="M 727.171875 426.203125 C 725.925781 426.160156 724.753906 426.601562 723.867188 427.367188 C 722.976562 428.128906 722.363281 429.21875 722.222656 430.460938 C 719.703125 452.625 723.566406 475.144531 746.292969 499.964844 C 756.929688 511.574219 789.847656 545.46875 789.847656 545.46875 C 793.382812 549.164062 799.191406 549.445312 803.074219 546.101562 L 829.378906 523.492188 C 833.261719 520.152344 833.859375 514.371094 830.734375 510.320312 C 830.734375 510.320312 802.160156 472.6875 792.28125 460.429688 C 771.148438 434.238281 749.460938 427.039062 727.171875 426.203125 " fill-opacity="1" fill-rule="nonzero"/><path fill="#e0edf9" d="M 727.171875 426.203125 C 725.925781 426.160156 724.753906 426.601562 723.867188 427.367188 C 722.976562 428.128906 722.363281 429.21875 722.222656 430.460938 C 719.703125 452.625 723.566406 475.144531 746.292969 499.964844 C 756.929688 511.574219 789.847656 545.46875 789.847656 545.46875 C 793.382812 549.164062 799.191406 549.445312 803.074219 546.101562 L 829.378906 523.492188 C 833.261719 520.152344 833.859375 514.371094 830.734375 510.320312 C 830.734375 510.320312 802.160156 472.6875 792.28125 460.429688 C 771.148438 434.238281 749.460938 427.039062 727.171875 426.203125 " fill-opacity="1" fill-rule="nonzero"/></g></g></g></g><g clip-path="url(#id96)"><g clip-path="url(#id97)"><g clip-path="url(#id98)"><g clip-path="url(#id99)"><path fill="#e0edf9" d="M 755.828125 431.925781 L 723.582031 459.652344 C 721.238281 449.75 721.128906 440.078125 722.230469 430.464844 C 722.371094 429.226562 722.96875 428.125 723.859375 427.359375 C 724.75 426.59375 725.929688 426.164062 727.171875 426.214844 C 736.84375 426.566406 746.390625 428.128906 755.828125 431.925781 " fill-opacity="1" fill-rule="nonzero"/><path fill="#e0edf9" d="M 755.828125 431.925781 L 723.582031 459.652344 C 721.238281 449.75 721.128906 440.078125 722.230469 430.464844 C 722.371094 429.226562 722.96875 428.125 723.859375 427.359375 C 724.75 426.59375 725.929688 426.164062 727.171875 426.214844 C 736.84375 426.566406 746.390625 428.128906 755.828125 431.925781 " fill-opacity="1" fill-rule="nonzero"/><path fill="#f0384b" d="M 755.828125 431.925781 L 723.582031 459.652344 C 721.238281 449.75 721.128906 440.078125 722.230469 430.464844 C 722.371094 429.226562 722.96875 428.125 723.859375 427.359375 C 724.75 426.59375 725.929688 426.164062 727.171875 426.214844 C 736.84375 426.566406 746.390625 428.128906 755.828125 431.925781 " fill-opacity="1" fill-rule="nonzero"/></g></g></g></g><g clip-path="url(#id100)"><g clip-path="url(#id101)"><g clip-path="url(#id102)"><g clip-path="url(#id103)"><path fill="#6d91d2" d="M 768.761719 459.058594 C 773.570312 464.648438 772.925781 473.097656 767.324219 477.914062 C 761.722656 482.730469 753.269531 482.101562 748.464844 476.507812 C 743.65625 470.917969 744.300781 462.46875 749.902344 457.652344 C 755.503906 452.835938 763.957031 453.464844 768.761719 459.058594 " fill-opacity="1" fill-rule="nonzero"/></g></g></g></g><g clip-path="url(#id104)"><g clip-path="url(#id105)"><g clip-path="url(#id106)"><g clip-path="url(#id107)"><path fill="#f24d95" d="M 803.609375 586.253906 C 804.882812 589.582031 805.628906 593.042969 802.917969 595.375 C 800.203125 597.710938 796.113281 597.398438 793.789062 594.695312 C 791.464844 591.988281 791.289062 587.34375 794.007812 585.007812 C 796.714844 582.679688 802.171875 582.496094 803.609375 586.253906 " fill-opacity="1" fill-rule="nonzero"/></g></g></g></g><g clip-path="url(#id108)"><g clip-path="url(#id109)"><g clip-path="url(#id110)"><g clip-path="url(#id111)"><path fill="#f03678" d="M 884.9375 552.085938 C 885.785156 552.367188 886.722656 552.085938 887.195312 551.316406 C 891.285156 544.707031 900.003906 542.382812 906.761719 544.613281 L 906.78125 544.601562 C 915.808594 541.957031 929.265625 543.78125 936.265625 550.007812 C 938.417969 551.886719 939.1875 554.644531 936.746094 556.742188 L 819.84375 657.246094 C 817.417969 659.332031 814.835938 658.183594 813.261719 655.800781 C 810.816406 652.101562 805.203125 640.933594 812.695312 627.359375 C 810.640625 620.054688 814.226562 610.710938 821.914062 607.441406 C 822.734375 607.089844 823.167969 606.222656 823.023438 605.335938 C 822.296875 601.03125 826.542969 593.136719 833.238281 591.394531 C 834.125 591.164062 834.726562 590.351562 834.675781 589.4375 C 834.183594 580.441406 824.660156 567.242188 819.914062 559.527344 L 840.214844 542.074219 C 847.082031 547.867188 858.753906 559.117188 867.582031 560.957031 C 868.472656 561.140625 869.367188 560.671875 869.730469 559.832031 C 872.453125 553.492188 880.800781 550.679688 884.9375 552.085938 " fill-opacity="1" fill-rule="nonzero"/></g></g></g></g><g clip-path="url(#id112)"><g clip-path="url(#id113)"><g clip-path="url(#id114)"><g clip-path="url(#id115)"><path fill="#df2568" d="M 853.3125 577.542969 C 854.523438 576.503906 854.660156 574.679688 853.625 573.472656 L 837.269531 554.449219 C 836.230469 553.242188 834.410156 553.109375 833.199219 554.148438 C 831.988281 555.1875 831.851562 557.011719 832.886719 558.21875 L 849.242188 577.238281 C 850.28125 578.445312 852.101562 578.582031 853.3125 577.542969 " fill-opacity="1" fill-rule="nonzero"/></g></g></g></g><g clip-path="url(#id116)"><path fill="#f4f4f4" d="M 510.875 369.523438 L 680.183594 369.523438 L 680.183594 538.832031 L 510.875 538.832031 Z M 510.875 369.523438 " fill-opacity="1" fill-rule="nonzero"/></g><g clip-path="url(#id117)"><path fill="#f4f4f4" d="M 160.851562 369.523438 L 330.15625 369.523438 L 330.15625 538.832031 L 160.851562 538.832031 Z M 160.851562 369.523438 " fill-opacity="1" fill-rule="nonzero"/></g><g clip-path="url(#id118)"><path fill="#f4f4f4" d="M 449.464844 463.375 C 449.023438 463.269531 448.378906 463.011719 447.867188 462.355469 C 446.882812 461.078125 447.152344 458.132812 448.019531 456.179688 C 448.695312 454.660156 447.578125 452.035156 446.492188 449.496094 C 445.941406 448.195312 445.367188 446.855469 445.335938 446.253906 C 445.277344 445.125 445.648438 444.792969 445.773438 444.683594 C 446.570312 443.984375 448.621094 444.183594 450.808594 444.554688 C 451.308594 446.625 451.601562 448.765625 451.667969 450.949219 C 451.675781 451.261719 451.675781 451.574219 451.675781 451.886719 C 451.675781 455.945312 450.886719 459.816406 449.464844 463.375 Z M 446.507812 469.011719 C 445.765625 467.84375 444.792969 467.027344 443.613281 466.585938 C 440.320312 465.355469 436.222656 467.3125 433.773438 468.480469 C 431.414062 469.609375 431.078125 469.203125 430.34375 468.3125 C 430.105469 468.027344 429.835938 467.699219 429.484375 467.386719 C 427.984375 466.0625 423.984375 463.875 421.945312 463.453125 C 421.445312 463.351562 420.898438 463.363281 420.324219 463.378906 C 418.40625 463.417969 415.785156 463.476562 411.835938 459.574219 C 411.183594 458.929688 410.480469 458.652344 409.734375 458.742188 C 408.039062 458.953125 406.742188 461.089844 405.488281 463.15625 C 404.800781 464.292969 403.648438 466.195312 403.101562 466.195312 C 400.636719 466.195312 399.285156 465.074219 397.785156 463.140625 C 397.242188 462.4375 396.925781 461.671875 396.617188 460.929688 C 396.011719 459.484375 395.386719 457.988281 393.226562 457.828125 C 391.851562 457.726562 391.011719 458.21875 390.40625 458.976562 C 389.871094 456.699219 389.578125 454.328125 389.578125 451.886719 C 389.578125 450.207031 389.71875 448.550781 389.976562 446.925781 C 391.203125 445.824219 392.996094 445.25 393.980469 445.410156 C 394.84375 445.546875 395.777344 445.894531 395.933594 448.253906 C 395.996094 449.21875 396.488281 450.015625 397.355469 450.558594 C 398.253906 451.121094 399.421875 451.332031 400.492188 451.332031 C 401.402344 451.332031 402.242188 451.179688 402.800781 450.953125 C 404.433594 450.28125 405.128906 448.941406 405.867188 447.527344 C 406.578125 446.15625 407.382812 444.605469 409.246094 443.316406 C 411.21875 441.953125 414.363281 441.125 416.660156 440.519531 C 419.007812 439.898438 420.0625 439.601562 420.507812 438.984375 C 421.171875 438.066406 421.601562 435.730469 421.140625 434.414062 C 420.886719 433.683594 420.425781 433.417969 420.085938 433.324219 C 419.375 433.125 418.550781 433.359375 417.679688 433.601562 C 416.929688 433.808594 416.082031 434.046875 415.554688 433.898438 C 415.308594 433.828125 415.019531 433.558594 414.710938 433.277344 C 413.828125 432.460938 412.488281 431.226562 409.804688 432.476562 C 408.382812 433.136719 406.253906 432.691406 404.855469 431.441406 C 403.984375 430.660156 402.695312 428.914062 403.609375 425.910156 C 404.539062 425.304688 405.5 424.742188 406.5 424.230469 C 407.789062 423.570312 409.113281 423.019531 410.460938 422.550781 C 411.230469 424.027344 412.914062 425.355469 415.054688 426.128906 C 416.359375 426.601562 417.710938 426.832031 419.050781 426.832031 C 421.226562 426.832031 423.363281 426.214844 425.160156 425.019531 C 425.867188 424.546875 426.78125 424.242188 427.660156 423.945312 C 428.796875 423.5625 429.871094 423.195312 430.605469 422.484375 C 432.734375 423.207031 434.789062 424.160156 436.726562 425.339844 C 439.625 427.097656 442.167969 429.277344 444.292969 431.777344 C 442.773438 432.855469 440.292969 434.398438 437.460938 433.730469 C 432.851562 432.648438 431.023438 435.171875 429.816406 436.84375 C 429.378906 437.445312 428.96875 438.011719 428.601562 438.164062 C 428.207031 438.324219 427.640625 438.476562 427.039062 438.636719 C 425.277344 439.109375 423.277344 439.640625 422.738281 441.089844 C 422.214844 442.492188 422.214844 444.414062 425.164062 445.601562 C 425.757812 445.839844 426.589844 445.9375 427.546875 445.9375 C 430.996094 445.9375 436.054688 444.671875 437.132812 444.140625 C 438.90625 443.269531 440.429688 442.671875 441.902344 442.09375 C 444.125 441.222656 446.238281 440.386719 448.789062 438.769531 C 449.414062 440.105469 449.9375 441.496094 450.363281 442.914062 C 447.738281 442.519531 445.859375 442.542969 444.75 443.523438 C 444.050781 444.144531 443.726562 445.089844 443.789062 446.332031 C 443.835938 447.210938 444.40625 448.550781 445.070312 450.101562 C 445.839844 451.910156 447.007812 454.648438 446.605469 455.550781 C 445.703125 457.582031 445.117188 461.328125 446.644531 463.300781 C 447.273438 464.117188 448.085938 464.582031 448.847656 464.808594 C 448.175781 466.273438 447.394531 467.679688 446.507812 469.011719 Z M 443.015625 473.367188 C 442.738281 473.371094 442.449219 473.378906 442.144531 473.390625 C 440.761719 473.453125 439.039062 473.527344 437.402344 472.773438 C 434.964844 471.648438 429.617188 471.511719 427.496094 473.632812 C 427.132812 474 426.800781 474.371094 426.480469 474.734375 C 425.25 476.121094 424.28125 477.214844 422.1875 477.027344 C 421.601562 476.976562 421.066406 476.898438 420.546875 476.820312 C 418.351562 476.496094 416.453125 476.214844 413.914062 478.554688 L 413.414062 479.019531 C 411.136719 481.128906 410.902344 481.339844 408.554688 480.492188 C 400.1875 476.949219 393.691406 469.839844 390.96875 461.082031 C 391.625 459.636719 392.082031 459.292969 393.113281 459.371094 C 394.277344 459.457031 394.589844 460.09375 395.1875 461.527344 C 395.519531 462.320312 395.894531 463.222656 396.5625 464.085938 C 397.933594 465.855469 399.675781 467.742188 403.101562 467.742188 C 404.515625 467.742188 405.582031 465.992188 406.8125 463.960938 C 407.773438 462.375 408.972656 460.394531 409.921875 460.28125 C 410.015625 460.265625 410.296875 460.234375 410.746094 460.675781 C 415.164062 465.039062 418.292969 464.972656 420.359375 464.921875 C 420.867188 464.914062 421.304688 464.902344 421.632812 464.96875 C 423.386719 465.332031 427.136719 467.375 428.457031 468.542969 C 428.722656 468.777344 428.9375 469.042969 429.152344 469.300781 C 430.226562 470.605469 431.238281 471.410156 434.441406 469.878906 C 436.667969 468.816406 440.394531 467.035156 443.070312 468.035156 C 444.117188 468.425781 444.917969 469.210938 445.527344 470.414062 C 444.753906 471.453125 443.910156 472.433594 443.015625 473.367188 Z M 420.628906 482.9375 C 417.800781 482.9375 415.066406 482.550781 412.464844 481.839844 C 413.046875 481.449219 413.671875 480.894531 414.46875 480.152344 L 414.964844 479.691406 C 416.957031 477.855469 418.226562 478.042969 420.320312 478.351562 C 420.863281 478.429688 421.421875 478.515625 422.050781 478.570312 C 424.925781 478.828125 426.304688 477.269531 427.636719 475.761719 C 427.941406 475.414062 428.257812 475.058594 428.59375 474.726562 C 430.058594 473.261719 434.574219 473.171875 436.753906 474.179688 C 438.378906 474.929688 440.019531 475 441.367188 474.96875 C 435.867188 479.917969 428.59375 482.9375 420.628906 482.9375 Z M 401.78125 427.203125 C 401.589844 429.324219 402.292969 431.222656 403.820312 432.59375 C 405.683594 434.261719 408.476562 434.800781 410.457031 433.878906 C 412.203125 433.066406 412.84375 433.660156 413.660156 434.414062 C 414.089844 434.808594 414.535156 435.21875 415.136719 435.386719 C 416.082031 435.652344 417.148438 435.355469 418.09375 435.09375 C 418.640625 434.941406 419.3125 434.753906 419.632812 434.804688 C 419.945312 435.234375 419.777344 437.355469 419.28125 438.046875 C 419.003906 438.300781 417.484375 438.699219 416.265625 439.019531 C 413.722656 439.691406 410.5625 440.523438 408.363281 442.042969 C 406.1875 443.550781 405.246094 445.359375 404.492188 446.8125 C 403.8125 448.121094 403.320312 449.066406 402.214844 449.519531 C 401.347656 449.875 399.296875 449.945312 398.175781 449.246094 C 397.730469 448.964844 397.507812 448.621094 397.476562 448.15625 C 397.3125 445.601562 396.25 444.203125 394.226562 443.878906 C 393.109375 443.703125 391.675781 444.058594 390.40625 444.75 C 392.039062 437.769531 396.039062 431.578125 401.78125 427.203125 Z M 420.628906 420.839844 C 423.375 420.839844 426.085938 421.203125 428.703125 421.90625 C 428.253906 422.113281 427.71875 422.292969 427.167969 422.476562 C 426.191406 422.804688 425.179688 423.140625 424.300781 423.730469 C 421.808594 425.390625 418.546875 425.742188 415.578125 424.671875 C 413.933594 424.078125 412.613281 423.101562 411.972656 422.0625 C 414.757812 421.253906 417.648438 420.839844 420.628906 420.839844 Z M 448.09375 437.378906 C 445.613281 438.964844 443.617188 439.757812 441.335938 440.652344 C 439.835938 441.242188 438.28125 441.851562 436.449219 442.753906 C 435.132812 443.398438 427.804688 444.996094 425.742188 444.167969 C 424.160156 443.53125 423.738281 442.84375 424.1875 441.632812 C 424.449219 440.929688 426.246094 440.449219 427.4375 440.132812 C 428.089844 439.957031 428.707031 439.796875 429.191406 439.59375 C 429.964844 439.273438 430.503906 438.535156 431.070312 437.75 C 432.265625 436.101562 433.503906 434.390625 437.105469 435.238281 C 440.652344 436.070312 443.554688 434.210938 445.273438 432.980469 C 446.339844 434.367188 447.28125 435.839844 448.09375 437.378906 Z M 453.210938 450.902344 C 452.882812 439.824219 447.019531 429.773438 437.53125 424.015625 C 432.460938 420.925781 426.617188 419.292969 420.628906 419.292969 C 415.472656 419.292969 410.34375 420.523438 405.796875 422.851562 C 394.835938 428.464844 388.03125 439.589844 388.03125 451.886719 C 388.03125 465.253906 396.121094 476.765625 407.65625 481.789062 C 407.710938 481.8125 408.691406 482.222656 409.054688 482.363281 C 412.652344 483.734375 416.554688 484.484375 420.628906 484.484375 C 438.601562 484.484375 453.226562 469.863281 453.226562 451.886719 C 453.226562 451.558594 453.226562 451.230469 453.210938 450.902344 " fill-opacity="1" fill-rule="nonzero"/></g><path fill="#f4f4f4" d="M 431.570312 455.671875 C 430.957031 456.511719 429.738281 457.800781 428.425781 457.019531 C 427.304688 456.347656 426.71875 454.605469 427.25 453.5 C 427.417969 453.148438 427.757812 452.871094 428.1875 452.742188 C 428.363281 452.6875 428.542969 452.660156 428.722656 452.660156 C 429.023438 452.660156 429.320312 452.734375 429.578125 452.886719 C 430.714844 453.550781 431.542969 454.414062 431.683594 455.09375 C 431.730469 455.320312 431.695312 455.496094 431.570312 455.671875 Z M 430.359375 451.550781 C 429.578125 451.09375 428.617188 450.988281 427.734375 451.261719 C 426.890625 451.519531 426.207031 452.09375 425.851562 452.832031 C 424.984375 454.644531 425.835938 457.273438 427.632812 458.347656 C 427.914062 458.515625 428.511719 458.804688 429.285156 458.804688 C 430.269531 458.804688 431.539062 458.339844 432.820312 456.585938 C 433.207031 456.054688 433.335938 455.429688 433.199219 454.773438 C 432.960938 453.640625 431.925781 452.464844 430.359375 451.550781 " fill-opacity="1" fill-rule="nonzero"/><path fill="#f4f4f4" d="M 439.84375 450.929688 C 439.550781 451.175781 438.917969 451.175781 438.222656 450.921875 C 438 450.839844 437.414062 450.625 437.601562 449.644531 C 437.710938 449.0625 438.359375 448.714844 438.921875 448.714844 C 438.921875 448.714844 438.921875 448.714844 438.925781 448.714844 C 439.265625 448.714844 439.855469 448.835938 440.015625 449.648438 C 440.085938 450.011719 440.160156 450.65625 439.84375 450.929688 Z M 438.925781 447.167969 C 438.921875 447.167969 438.917969 447.167969 438.917969 447.167969 C 437.511719 447.171875 436.316406 448.089844 436.078125 449.355469 C 435.808594 450.757812 436.429688 451.914062 437.691406 452.375 C 438.21875 452.566406 438.722656 452.660156 439.1875 452.660156 C 439.84375 452.660156 440.417969 452.472656 440.851562 452.101562 C 441.328125 451.695312 441.835938 450.882812 441.535156 449.351562 C 441.273438 448.023438 440.25 447.167969 438.925781 447.167969 " fill-opacity="1" fill-rule="nonzero"/><path fill="#f4f4f4" d="M 438.574219 460.785156 C 438.433594 460.90625 438.027344 460.945312 437.484375 460.75 C 437.324219 460.691406 436.992188 460.570312 437.109375 459.949219 C 437.179688 459.582031 437.601562 459.367188 437.96875 459.363281 C 437.96875 459.363281 437.972656 459.363281 437.972656 459.363281 C 438.347656 459.363281 438.574219 459.5625 438.652344 459.953125 C 438.734375 460.363281 438.703125 460.671875 438.574219 460.785156 Z M 437.972656 457.816406 C 437.96875 457.816406 437.96875 457.816406 437.964844 457.816406 C 436.792969 457.820312 435.792969 458.59375 435.589844 459.660156 C 435.363281 460.839844 435.886719 461.8125 436.957031 462.203125 C 437.382812 462.359375 437.796875 462.4375 438.175781 462.4375 C 438.726562 462.4375 439.214844 462.277344 439.582031 461.960938 C 439.988281 461.613281 440.421875 460.929688 440.171875 459.65625 C 439.953125 458.539062 439.089844 457.816406 437.972656 457.816406 " fill-opacity="1" fill-rule="nonzero"/></svg>