<svg xmlns="http://www.w3.org/2000/svg" xmlns:xlink="http://www.w3.org/1999/xlink" width="1122" zoomAndPan="magnify" viewBox="0 0 841.92 595.499987" height="793" preserveAspectRatio="xMidYMid meet" version="1.0"><defs><filter x="0%" y="0%" width="100%" height="100%" id="id1"><feColorMatrix values="0 0 0 0 1 0 0 0 0 1 0 0 0 0 1 0 0 0 1 0" color-interpolation-filters="sRGB"/></filter><clipPath id="id2"><path d="M 0.3125 0 L 841.527344 0 L 841.527344 594.824219 L 0.3125 594.824219 Z M 0.3125 0 " clip-rule="nonzero"/></clipPath><clipPath id="id3"><path d="M 3.003906 0 L 284 0 L 284 255.238281 L 3.003906 255.238281 Z M 3.003906 0 " clip-rule="nonzero"/></clipPath><clipPath id="id4"><path d="M 283 0 L 564.117188 0 L 564.117188 255.238281 L 283 255.238281 Z M 283 0 " clip-rule="nonzero"/></clipPath><clipPath id="id5"><path d="M 148 0 L 433 0 L 433 255.238281 L 148 255.238281 Z M 148 0 " clip-rule="nonzero"/></clipPath><mask id="id6"><g filter="url(#id1)"><rect x="-84.192" width="1010.304" fill="#000000" y="-59.549999" height="714.599985" fill-opacity="0.498"/></g></mask><clipPath id="id7"><path d="M 0.75 0 L 282 0 L 282 255.238281 L 0.75 255.238281 Z M 0.75 0 " clip-rule="nonzero"/></clipPath><clipPath id="id8"><rect x="0" width="285" y="0" height="256"/></clipPath><clipPath id="id9"><path d="M 0.3125 567.070312 L 841.527344 567.070312 L 841.527344 594.824219 L 0.3125 594.824219 Z M 0.3125 567.070312 " clip-rule="nonzero"/></clipPath><clipPath id="id10"><path d="M 94.378906 471.609375 L 269.988281 471.609375 L 269.988281 473.792969 L 94.378906 473.792969 Z M 94.378906 471.609375 " clip-rule="nonzero"/></clipPath><clipPath id="id11"><path d="M 95.5 390.214844 L 270.382812 390.214844 L 270.382812 392.398438 L 95.5 392.398438 Z M 95.5 390.214844 " clip-rule="nonzero"/></clipPath></defs><g clip-path="url(#id2)"><path fill="#ffffff" d="M 0.3125 0 L 841.605469 0 L 841.605469 594.824219 L 0.3125 594.824219 Z M 0.3125 0 " fill-opacity="1" fill-rule="nonzero"/><path fill="#f6f6f4" d="M 0.3125 0 L 841.605469 0 L 841.605469 594.824219 L 0.3125 594.824219 Z M 0.3125 0 " fill-opacity="1" fill-rule="nonzero"/></g><g clip-path="url(#id3)"><path fill="#373635" d="M 3.003906 255.238281 L 3.003906 -25.691406 L 283.5625 -25.691406 Z M 3.003906 255.238281 " fill-opacity="1" fill-rule="nonzero"/></g><g clip-path="url(#id4)"><path fill="#373635" d="M 564.117188 -25.691406 L 283.5625 -25.691406 L 283.5625 255.238281 Z M 564.117188 -25.691406 " fill-opacity="1" fill-rule="nonzero"/></g><g clip-path="url(#id5)"><g mask="url(#id6)"><g transform="matrix(1, 0, 0, 1, 148, 0)"><g clip-path="url(#id8)"><g clip-path="url(#id7)"><path fill="#cc3838" d="M 0.894531 255.238281 L 0.894531 -25.691406 L 281.730469 -25.691406 Z M 0.894531 255.238281 " fill-opacity="1" fill-rule="nonzero"/></g></g></g></g></g><g clip-path="url(#id9)"><path fill="#cc3838" d="M -69.214844 116.238281 L 910.671875 116.238281 L 910.671875 1096.125 L -69.214844 1096.125 Z M -69.214844 116.238281 " fill-opacity="1" fill-rule="nonzero"/></g><g clip-path="url(#id10)"><path fill="#373635" d="M 94.378906 385.125 L 269.988281 385.125 L 269.988281 560.738281 L 94.378906 560.738281 Z M 94.378906 385.125 " fill-opacity="1" fill-rule="nonzero"/></g><g clip-path="url(#id11)"><path fill="#373635" d="M 95.5 304.074219 L 270.382812 304.074219 L 270.382812 478.957031 L 95.5 478.957031 Z M 95.5 304.074219 " fill-opacity="1" fill-rule="nonzero"/></g></svg>