<svg xmlns="http://www.w3.org/2000/svg" xmlns:xlink="http://www.w3.org/1999/xlink" width="1122" zoomAndPan="magnify" viewBox="0 0 841.92 595.499987" height="793" preserveAspectRatio="xMidYMid meet" version="1.0"><defs><clipPath id="id1"><path d="M 0.3125 0 L 841.527344 0 L 841.527344 594.824219 L 0.3125 594.824219 Z M 0.3125 0 " clip-rule="nonzero"/></clipPath><clipPath id="id2"><path d="M 664.234375 327 L 841.527344 327 L 841.527344 586.433594 L 664.234375 586.433594 Z M 664.234375 327 " clip-rule="nonzero"/></clipPath><clipPath id="id3"><path d="M 812 253.667969 L 841.527344 253.667969 L 841.527344 325.695312 L 812 325.695312 Z M 812 253.667969 " clip-rule="nonzero"/></clipPath><clipPath id="id4"><path d="M 589 535 L 710 535 L 710 594.824219 L 589 594.824219 Z M 589 535 " clip-rule="nonzero"/></clipPath><clipPath id="id5"><path d="M 0.3125 0 L 181.371094 0 L 181.371094 192.5625 L 0.3125 192.5625 Z M 0.3125 0 " clip-rule="nonzero"/></clipPath><clipPath id="id6"><path d="M 199 0 L 318.933594 0 L 318.933594 78 L 199 78 Z M 199 0 " clip-rule="nonzero"/></clipPath><clipPath id="id7"><path d="M 263.25 198.695312 L 575.644531 198.695312 L 575.644531 249.636719 L 263.25 249.636719 Z M 263.25 198.695312 " clip-rule="nonzero"/></clipPath></defs><g clip-path="url(#id1)"><path fill="#ffffff" d="M 0.3125 0 L 841.605469 0 L 841.605469 594.824219 L 0.3125 594.824219 Z M 0.3125 0 " fill-opacity="1" fill-rule="nonzero"/><path fill="#fff8de" d="M 0.3125 0 L 841.605469 0 L 841.605469 594.824219 L 0.3125 594.824219 Z M 0.3125 0 " fill-opacity="1" fill-rule="nonzero"/></g><g clip-path="url(#id2)"><path fill="#f5de30" d="M 853.113281 572.285156 C 852.71875 572.261719 852.425781 572.515625 852.105469 572.675781 C 842.800781 577.359375 833.042969 580.789062 822.890625 583.109375 C 819.085938 583.976562 815.246094 584.664062 811.367188 585.152344 C 807.902344 585.59375 804.433594 585.902344 800.945312 586.125 C 797.921875 586.320312 794.902344 586.34375 791.878906 586.316406 C 788.90625 586.289062 785.949219 586.035156 782.984375 585.816406 C 780.644531 585.640625 778.316406 585.367188 775.996094 585.050781 C 772.4375 584.566406 768.910156 583.890625 765.40625 583.101562 C 758.117188 581.460938 751.042969 579.167969 744.148438 576.308594 C 737.785156 573.667969 731.679688 570.511719 725.816406 566.886719 C 720.839844 563.8125 716.089844 560.421875 711.582031 556.699219 C 706.511719 552.511719 701.789062 547.957031 697.394531 543.054688 C 693.039062 538.191406 689.074219 533.035156 685.503906 527.574219 C 681.222656 521.019531 677.570312 514.128906 674.53125 506.90625 C 671.597656 499.925781 669.300781 492.753906 667.617188 485.382812 C 666.886719 482.1875 666.296875 478.96875 665.808594 475.726562 C 665.304688 472.378906 665.027344 469.011719 664.667969 465.648438 C 664.660156 465.597656 664.660156 465.546875 664.660156 465.492188 C 664.625 461.953125 664.15625 458.417969 664.390625 454.882812 C 664.574219 452.128906 664.46875 449.363281 664.832031 446.621094 C 665.058594 444.921875 665.0625 443.191406 665.289062 441.492188 C 665.65625 438.707031 666.054688 435.925781 666.5625 433.167969 C 667.800781 426.453125 669.570312 419.875 671.863281 413.441406 C 673.246094 409.566406 674.816406 405.765625 676.550781 402.03125 C 679.695312 395.257812 683.429688 388.824219 687.695312 382.699219 C 690.527344 378.632812 693.597656 374.753906 696.871094 371.035156 C 699.941406 367.546875 703.207031 364.25 706.628906 361.117188 C 712.910156 355.363281 719.722656 350.300781 727.015625 345.894531 C 733.863281 341.757812 741.027344 338.292969 748.511719 335.476562 C 753.980469 333.417969 759.5625 331.746094 765.257812 330.445312 C 769.0625 329.574219 772.902344 328.878906 776.777344 328.382812 C 780.136719 327.949219 783.503906 327.652344 786.886719 327.410156 C 790.328125 327.167969 793.765625 327.195312 797.207031 327.210938 C 800.074219 327.222656 802.925781 327.507812 805.78125 327.726562 C 808.125 327.902344 810.449219 328.195312 812.769531 328.507812 C 815.34375 328.855469 817.894531 329.40625 820.449219 329.890625 C 825.472656 330.84375 830.382812 332.230469 835.230469 333.828125 C 839.539062 335.253906 843.757812 336.90625 847.882812 338.796875 C 849.632812 339.597656 851.371094 340.429688 853.113281 341.25 C 853.113281 418.261719 853.113281 495.273438 853.113281 572.285156 " fill-opacity="1" fill-rule="nonzero"/></g><g clip-path="url(#id3)"><path fill="#f8b80d" d="M 853.113281 322.179688 C 849.070312 324.59375 844.695312 325.789062 839.988281 325.554688 C 835.574219 325.339844 831.523438 323.921875 827.824219 321.507812 C 823.867188 318.921875 820.75 315.53125 818.257812 311.550781 C 815.40625 306.984375 813.648438 302.015625 812.683594 296.730469 C 812.007812 293.015625 811.855469 289.269531 812.132812 285.527344 C 812.660156 278.445312 814.695312 271.832031 818.691406 265.898438 C 820.929688 262.578125 823.6875 259.765625 827.0625 257.582031 C 831.589844 254.652344 836.539062 253.296875 841.925781 253.753906 C 845.613281 254.0625 849.050781 255.234375 852.234375 257.132812 C 852.542969 257.316406 852.820312 257.558594 853.113281 257.777344 C 853.113281 279.246094 853.113281 300.710938 853.113281 322.179688 " fill-opacity="1" fill-rule="nonzero"/></g><g clip-path="url(#id4)"><path fill="#f8b80c" d="M 707.398438 616.621094 C 706.773438 616.640625 706.148438 616.679688 705.523438 616.679688 C 668.222656 616.679688 630.921875 616.679688 593.621094 616.679688 C 592.996094 616.679688 592.371094 616.644531 591.742188 616.625 C 590.53125 612.304688 589.71875 607.917969 589.375 603.4375 C 588.1875 587.886719 591.75 573.550781 600.546875 560.625 C 606.375 552.058594 613.992188 545.457031 623.339844 540.898438 C 628.332031 538.464844 633.582031 536.839844 639.074219 535.945312 C 642.023438 535.464844 644.984375 535.222656 647.949219 535.238281 C 657.667969 535.277344 666.828125 537.617188 675.371094 542.253906 C 686.597656 548.34375 695.101562 557.144531 701.171875 568.324219 C 704.9375 575.25 707.359375 582.632812 708.527344 590.429688 C 709.160156 594.664062 709.480469 598.917969 709.285156 603.195312 C 709.082031 607.722656 708.519531 612.214844 707.398438 616.621094 " fill-opacity="1" fill-rule="nonzero"/></g><path fill="#f8b80d" d="M 661.726562 491.101562 C 661.429688 499.496094 658.558594 507.15625 652.171875 513.300781 C 648.511719 516.824219 644.175781 519.121094 639.15625 519.980469 C 633.058594 521.023438 627.441406 519.695312 622.378906 516.175781 C 617.058594 512.480469 613.683594 507.34375 612.105469 501.148438 C 609.425781 490.628906 611.515625 481.042969 618.324219 472.53125 C 618.976562 471.71875 619.636719 470.898438 620.703125 470.578125 C 621.027344 470.480469 621.195312 470.203125 621.320312 469.910156 C 621.597656 469.261719 622.105469 468.816406 622.644531 468.402344 C 626.6875 465.316406 631.242188 463.519531 636.328125 463.265625 C 640.988281 463.03125 645.320312 464.230469 649.265625 466.707031 C 654.5625 470.027344 658.003906 474.796875 660.035156 480.640625 C 661.175781 483.917969 661.65625 487.304688 661.726562 491.101562 " fill-opacity="1" fill-rule="nonzero"/><g clip-path="url(#id5)"><path fill="#f5de30" d="M -17.417969 191.84375 C -16.261719 191.820312 -15.105469 191.832031 -13.957031 192.042969 C -13.632812 192.101562 -13.300781 192.117188 -12.972656 192.136719 C -6.363281 192.59375 0.253906 192.582031 6.875 192.550781 C 10.132812 192.535156 13.378906 192.320312 16.617188 192.085938 C 20.292969 191.820312 23.960938 191.410156 27.621094 190.925781 C 33.359375 190.164062 39.042969 189.152344 44.683594 187.882812 C 55.621094 185.421875 66.238281 181.972656 76.535156 177.523438 C 85.5625 173.617188 94.203125 168.996094 102.445312 163.621094 C 108.96875 159.367188 115.179688 154.707031 121.066406 149.605469 C 125.492188 145.773438 129.722656 141.738281 133.714844 137.460938 C 142.101562 128.480469 149.460938 118.722656 155.75 108.160156 C 160.699219 99.847656 164.9375 91.1875 168.46875 82.1875 C 171.878906 73.5 174.589844 64.597656 176.617188 55.488281 C 177.734375 50.488281 178.679688 45.457031 179.355469 40.375 C 179.722656 37.585938 180.078125 34.804688 180.347656 32.003906 C 180.636719 28.988281 180.816406 25.964844 181.019531 22.9375 C 181.429688 16.816406 181.242188 10.699219 181.199219 4.574219 C 180.8125 2.117188 181.039062 -0.378906 180.695312 -2.847656 C 180.449219 -4.589844 180.441406 -6.363281 180.253906 -8.117188 C 179.960938 -10.796875 179.601562 -13.472656 179.273438 -16.152344 C 113.710938 -16.152344 48.144531 -16.152344 -17.417969 -16.152344 C -17.417969 53.179688 -17.417969 122.511719 -17.417969 191.84375 " fill-opacity="1" fill-rule="nonzero"/></g><g clip-path="url(#id6)"><path fill="#f8b80c" d="M 215.695312 -16.152344 C 215.589844 -15.683594 215.179688 -15.457031 214.882812 -15.144531 C 208.695312 -8.554688 204.257812 -0.964844 201.730469 7.738281 C 199.90625 14.015625 199.304688 20.421875 199.890625 26.902344 C 200.875 37.75 204.859375 47.441406 211.746094 55.871094 C 220.203125 66.222656 231.054688 72.804688 244.007812 75.980469 C 247.984375 76.953125 252.011719 77.515625 256.101562 77.675781 C 270.425781 78.238281 283.453125 74.417969 295.179688 66.175781 C 299.082031 63.433594 302.519531 60.171875 305.640625 56.570312 C 306.292969 55.816406 306.941406 55.058594 307.058594 54.007812 C 307.09375 53.707031 307.242188 53.507812 307.53125 53.394531 C 308.398438 53.050781 308.914062 52.339844 309.414062 51.601562 C 313.894531 44.960938 316.785156 37.703125 318.082031 29.789062 C 318.757812 25.679688 318.933594 21.546875 318.597656 17.417969 C 317.804688 7.6875 314.546875 -1.175781 308.9375 -9.164062 C 307.1875 -11.65625 305.222656 -13.960938 303.117188 -16.152344 C 273.976562 -16.152344 244.835938 -16.152344 215.695312 -16.152344 " fill-opacity="1" fill-rule="nonzero"/></g><path fill="#f8b80d" d="M 273.957031 91.734375 C 266.722656 91.789062 260.492188 94.320312 255.382812 99.453125 C 252.324219 102.527344 250.222656 106.195312 249.355469 110.476562 C 247.816406 118.0625 249.898438 124.578125 255.488281 129.890625 C 259.289062 133.507812 263.917969 135.453125 269.140625 135.925781 C 277.847656 136.714844 285.203125 133.90625 291.136719 127.5 C 294.296875 124.085938 296.199219 120 296.734375 115.378906 C 297.390625 109.691406 295.9375 104.535156 292.300781 100.070312 C 288.777344 95.742188 284.164062 93.246094 278.734375 92.144531 C 277.15625 91.824219 275.5625 91.753906 273.957031 91.734375 " fill-opacity="1" fill-rule="nonzero"/><g clip-path="url(#id7)"><path fill="#f5de30" d="M 263.605469 226.511719 C 265.5 232.464844 267.761719 238.097656 269.511719 244.160156 C 270.761719 248.488281 272.363281 249.613281 275.167969 249.605469 C 323.199219 249.425781 371.226562 249.476562 419.257812 249.480469 C 468.105469 249.484375 516.953125 249.453125 565.800781 249.386719 C 566.621094 249.386719 567.765625 248.253906 568.203125 247.0625 C 570.652344 240.378906 572.988281 233.578125 575.207031 226.660156 C 575.617188 225.09375 575.621094 223.527344 575.222656 221.957031 C 573.050781 215.164062 570.648438 208.578125 568.433594 201.820312 C 567.746094 199.734375 566.957031 199.035156 565.539062 199.039062 C 468.910156 199.105469 372.277344 199.132812 275.644531 199.117188 C 274.742188 199.117188 273.796875 198.800781 272.957031 199.167969 C 271.90625 199.597656 271.160156 200.332031 270.714844 201.378906 C 268.234375 208.195312 265.855469 215.113281 263.582031 222.136719 C 263.210938 223.597656 263.21875 225.058594 263.605469 226.511719 Z M 263.605469 226.511719 " fill-opacity="1" fill-rule="nonzero"/></g><path stroke-linecap="butt" transform="matrix(1.501289, 0, 0, 1.625271, 347.505861, 491.126348)" fill="none" stroke-linejoin="miter" d="M 0.00130012 -0.000829561 L 97.810501 -0.000829561 " stroke="#000000" stroke-width="1" stroke-opacity="1" stroke-miterlimit="4"/></svg>