<svg xmlns="http://www.w3.org/2000/svg" xmlns:xlink="http://www.w3.org/1999/xlink" width="1122" zoomAndPan="magnify" viewBox="0 0 841.92 595.499987" height="793" preserveAspectRatio="xMidYMid meet" version="1.0"><defs><filter x="0%" y="0%" width="100%" height="100%" id="id1"><feColorMatrix values="0 0 0 0 1 0 0 0 0 1 0 0 0 0 1 0 0 0 1 0" color-interpolation-filters="sRGB"/></filter><clipPath id="id2"><path d="M 0.3125 0 L 841.527344 0 L 841.527344 594.824219 L 0.3125 594.824219 Z M 0.3125 0 " clip-rule="nonzero"/></clipPath><mask id="id3"><g filter="url(#id1)"><rect x="-84.192" width="1010.304" fill="#000000" y="-59.549999" height="714.599985" fill-opacity="0.5176"/></g></mask><clipPath id="id4"><path d="M 0.285156 1.027344 L 729.207031 1.027344 L 729.207031 487.226562 L 0.285156 487.226562 Z M 0.285156 1.027344 " clip-rule="nonzero"/></clipPath><clipPath id="id5"><rect x="0" width="730" y="0" height="490"/></clipPath><clipPath id="id6"><path d="M 0.3125 444.25 L 144.574219 444.25 L 144.574219 594.824219 L 0.3125 594.824219 Z M 0.3125 444.25 " clip-rule="nonzero"/></clipPath><clipPath id="id7"><path d="M 661.8125 0 L 841.527344 0 L 841.527344 139.6875 L 661.8125 139.6875 Z M 661.8125 0 " clip-rule="nonzero"/></clipPath><clipPath id="id8"><path d="M 722 0 L 841.527344 0 L 841.527344 301.535156 L 722 301.535156 Z M 722 0 " clip-rule="nonzero"/></clipPath><clipPath id="id9"><path d="M 131.066406 0 L 267.410156 0 L 267.410156 43.046875 L 131.066406 43.046875 Z M 131.066406 0 " clip-rule="nonzero"/></clipPath><clipPath id="id10"><path d="M 737 61 L 744.621094 61 L 744.621094 69 L 737 69 Z M 737 61 " clip-rule="nonzero"/></clipPath><clipPath id="id11"><path d="M 737 80 L 744.621094 80 L 744.621094 88 L 737 88 Z M 737 80 " clip-rule="nonzero"/></clipPath><clipPath id="id12"><path d="M 737 100 L 744.621094 100 L 744.621094 108 L 737 108 Z M 737 100 " clip-rule="nonzero"/></clipPath><clipPath id="id13"><path d="M 737 119 L 744.621094 119 L 744.621094 126.5625 L 737 126.5625 Z M 737 119 " clip-rule="nonzero"/></clipPath><clipPath id="id14"><path d="M 699 22.429688 L 706 22.429688 L 706 30 L 699 30 Z M 699 22.429688 " clip-rule="nonzero"/></clipPath><clipPath id="id15"><path d="M 115 511 L 122.742188 511 L 122.742188 519 L 115 519 Z M 115 511 " clip-rule="nonzero"/></clipPath><clipPath id="id16"><path d="M 115 531 L 122.742188 531 L 122.742188 538 L 115 538 Z M 115 531 " clip-rule="nonzero"/></clipPath><clipPath id="id17"><path d="M 115 550 L 122.742188 550 L 122.742188 558 L 115 558 Z M 115 550 " clip-rule="nonzero"/></clipPath><clipPath id="id18"><path d="M 115 569 L 122.742188 569 L 122.742188 576.722656 L 115 576.722656 Z M 115 569 " clip-rule="nonzero"/></clipPath><clipPath id="id19"><path d="M 77.078125 472.589844 L 84 472.589844 L 84 480 L 77.078125 480 Z M 77.078125 472.589844 " clip-rule="nonzero"/></clipPath><clipPath id="id20"><path d="M 77.078125 492 L 84 492 L 84 499 L 77.078125 499 Z M 77.078125 492 " clip-rule="nonzero"/></clipPath><clipPath id="id21"><path d="M 77.078125 511 L 84 511 L 84 519 L 77.078125 519 Z M 77.078125 511 " clip-rule="nonzero"/></clipPath><clipPath id="id22"><path d="M 77.078125 531 L 84 531 L 84 538 L 77.078125 538 Z M 77.078125 531 " clip-rule="nonzero"/></clipPath><clipPath id="id23"><path d="M 25.230469 400.152344 L 43.210938 400.152344 L 43.210938 472.820312 L 25.230469 472.820312 Z M 25.230469 400.152344 " clip-rule="nonzero"/></clipPath><clipPath id="id24"><path d="M 812.632812 268.742188 L 826.867188 268.742188 L 826.867188 383.359375 L 812.632812 383.359375 Z M 812.632812 268.742188 " clip-rule="nonzero"/></clipPath><clipPath id="id25"><path d="M 0.3125 115.144531 L 77.113281 115.144531 L 77.113281 246.246094 L 0.3125 246.246094 Z M 0.3125 115.144531 " clip-rule="nonzero"/></clipPath><clipPath id="id26"><path d="M 51 137.574219 L 156.351562 137.574219 L 156.351562 159.296875 L 51 159.296875 Z M 51 137.574219 " clip-rule="nonzero"/></clipPath><clipPath id="id27"><path d="M 750 488.410156 L 841.527344 488.410156 L 841.527344 510.136719 L 750 510.136719 Z M 750 488.410156 " clip-rule="nonzero"/></clipPath><clipPath id="id28"><path d="M 27 219 L 34.238281 219 L 34.238281 227 L 27 227 Z M 27 219 " clip-rule="nonzero"/></clipPath><clipPath id="id29"><path d="M 27 238 L 34.238281 238 L 34.238281 246 L 27 246 Z M 27 238 " clip-rule="nonzero"/></clipPath><clipPath id="id30"><path d="M 27 258 L 34.238281 258 L 34.238281 266 L 27 266 Z M 27 258 " clip-rule="nonzero"/></clipPath><clipPath id="id31"><path d="M 27 277 L 34.238281 277 L 34.238281 284.707031 L 27 284.707031 Z M 27 277 " clip-rule="nonzero"/></clipPath><clipPath id="id32"><path d="M 567 561 L 573.644531 561 L 573.644531 569 L 567 569 Z M 567 561 " clip-rule="nonzero"/></clipPath><clipPath id="id33"><path d="M 567 579 L 573.644531 579 L 573.644531 586 L 567 586 Z M 567 579 " clip-rule="nonzero"/></clipPath><clipPath id="id34"><path d="M 532.722656 526.648438 L 539 526.648438 L 539 533 L 532.722656 533 Z M 532.722656 526.648438 " clip-rule="nonzero"/></clipPath><clipPath id="id35"><path d="M 532.722656 544 L 539 544 L 539 551 L 532.722656 551 Z M 532.722656 544 " clip-rule="nonzero"/></clipPath><clipPath id="id36"><path d="M 532.722656 561 L 539 561 L 539 569 L 532.722656 569 Z M 532.722656 561 " clip-rule="nonzero"/></clipPath><clipPath id="id37"><path d="M 532.722656 579 L 539 579 L 539 586 L 532.722656 586 Z M 532.722656 579 " clip-rule="nonzero"/></clipPath></defs><g clip-path="url(#id2)"><path fill="#ffffff" d="M 0.3125 0 L 841.605469 0 L 841.605469 594.824219 L 0.3125 594.824219 Z M 0.3125 0 " fill-opacity="1" fill-rule="nonzero"/><path fill="#ffffff" d="M 0.3125 0 L 841.605469 0 L 841.605469 594.824219 L 0.3125 594.824219 Z M 0.3125 0 " fill-opacity="1" fill-rule="nonzero"/></g><g mask="url(#id3)"><g transform="matrix(1, 0, 0, 1, 56, 53)"><g clip-path="url(#id5)"><g clip-path="url(#id4)"><path fill="#d9d9d9" d="M 0.289062 1.027344 L 0.289062 487.226562 L 729.207031 487.226562 L 729.207031 1.027344 L 0.289062 1.027344 M 718.792969 476.816406 L 10.488281 476.816406 L 10.488281 11.21875 L 718.792969 11.21875 L 718.792969 476.816406 " fill-opacity="1" fill-rule="nonzero"/></g></g></g></g><path stroke-linecap="round" transform="matrix(0.749046, 0, 0, 0.749148, 154.564173, 450.062701)" fill="none" stroke-linejoin="miter" d="M 0.498404 -0.000268506 L 227.542529 -0.000268506 " stroke="#000000" stroke-width="1" stroke-opacity="1" stroke-miterlimit="4"/><path stroke-linecap="round" transform="matrix(0.749046, 0, 0, 0.749148, 532.442883, 450.062701)" fill="none" stroke-linejoin="miter" d="M 0.498666 -0.000268506 L 227.542791 -0.000268506 " stroke="#000000" stroke-width="1" stroke-opacity="1" stroke-miterlimit="4"/><g clip-path="url(#id6)"><path fill="#23547b" d="M 144.574219 580.222656 C 144.574219 582.445312 144.519531 584.671875 144.410156 586.894531 C 144.300781 589.117188 144.136719 591.335938 143.917969 593.550781 C 143.699219 595.765625 143.429688 597.972656 143.101562 600.171875 C 142.773438 602.375 142.394531 604.566406 141.960938 606.75 C 141.527344 608.929688 141.039062 611.101562 140.5 613.261719 C 139.957031 615.417969 139.363281 617.5625 138.71875 619.691406 C 138.070312 621.820312 137.375 623.933594 136.625 626.027344 C 135.875 628.125 135.074219 630.199219 134.222656 632.253906 C 133.371094 634.3125 132.46875 636.34375 131.519531 638.355469 C 130.566406 640.367188 129.566406 642.355469 128.519531 644.316406 C 127.46875 646.28125 126.371094 648.214844 125.226562 650.125 C 124.085938 652.03125 122.894531 653.914062 121.65625 655.761719 C 120.421875 657.613281 119.140625 659.433594 117.816406 661.21875 C 116.488281 663.007812 115.121094 664.761719 113.710938 666.480469 C 112.296875 668.199219 110.84375 669.886719 109.351562 671.535156 C 107.855469 673.183594 106.320312 674.792969 104.75 676.367188 C 103.175781 677.941406 101.5625 679.476562 99.914062 680.96875 C 98.265625 682.464844 96.582031 683.917969 94.859375 685.328125 C 93.140625 686.738281 91.386719 688.109375 89.601562 689.433594 C 87.8125 690.761719 85.992188 692.039062 84.144531 693.277344 C 82.292969 694.511719 80.414062 695.703125 78.503906 696.847656 C 76.597656 697.992188 74.660156 699.089844 72.699219 700.136719 C 70.734375 701.1875 68.75 702.1875 66.738281 703.136719 C 64.726562 704.089844 62.691406 704.992188 60.636719 705.84375 C 58.582031 706.695312 56.503906 707.496094 54.410156 708.242188 C 52.316406 708.992188 50.203125 709.691406 48.074219 710.335938 C 45.941406 710.984375 43.800781 711.578125 41.640625 712.117188 C 39.480469 712.65625 37.3125 713.144531 35.128906 713.578125 C 32.945312 714.011719 30.753906 714.394531 28.554688 714.71875 C 26.351562 715.046875 24.144531 715.320312 21.929688 715.539062 C 19.714844 715.753906 17.496094 715.917969 15.273438 716.027344 C 13.050781 716.136719 10.828125 716.191406 8.601562 716.191406 C 6.378906 716.191406 4.152344 716.136719 1.929688 716.027344 C -0.292969 715.917969 -2.511719 715.753906 -4.726562 715.539062 C -6.9375 715.320312 -9.148438 715.046875 -11.347656 714.71875 C -13.550781 714.394531 -15.742188 714.011719 -17.925781 713.578125 C -20.105469 713.144531 -22.277344 712.65625 -24.433594 712.117188 C -26.59375 711.578125 -28.738281 710.984375 -30.867188 710.335938 C -32.996094 709.691406 -35.109375 708.992188 -37.203125 708.242188 C -39.300781 707.496094 -41.375 706.695312 -43.429688 705.84375 C -45.488281 704.992188 -47.519531 704.089844 -49.53125 703.136719 C -51.542969 702.1875 -53.53125 701.1875 -55.492188 700.136719 C -57.457031 699.089844 -59.390625 697.992188 -61.300781 696.847656 C -63.207031 695.703125 -65.089844 694.511719 -66.9375 693.277344 C -68.789062 692.039062 -70.609375 690.761719 -72.394531 689.433594 C -74.183594 688.109375 -75.9375 686.738281 -77.65625 685.328125 C -79.375 683.917969 -81.0625 682.464844 -82.710938 680.96875 C -84.359375 679.476562 -85.96875 677.941406 -87.542969 676.367188 C -89.117188 674.792969 -90.652344 673.183594 -92.144531 671.535156 C -93.640625 669.886719 -95.09375 668.199219 -96.503906 666.480469 C -97.914062 664.761719 -99.285156 663.007812 -100.609375 661.21875 C -101.933594 659.433594 -103.214844 657.613281 -104.453125 655.761719 C -105.6875 653.914062 -106.878906 652.03125 -108.023438 650.125 C -109.167969 648.214844 -110.261719 646.28125 -111.3125 644.316406 C -112.363281 642.355469 -113.363281 640.367188 -114.3125 638.355469 C -115.265625 636.34375 -116.167969 634.3125 -117.019531 632.253906 C -117.871094 630.199219 -118.667969 628.125 -119.417969 626.027344 C -120.167969 623.933594 -120.867188 621.820312 -121.511719 619.691406 C -122.160156 617.5625 -122.753906 615.417969 -123.292969 613.261719 C -123.832031 611.101562 -124.320312 608.929688 -124.753906 606.75 C -125.1875 604.566406 -125.570312 602.375 -125.894531 600.171875 C -126.222656 597.972656 -126.496094 595.765625 -126.714844 593.550781 C -126.929688 591.335938 -127.09375 589.117188 -127.203125 586.894531 C -127.3125 584.671875 -127.367188 582.445312 -127.367188 580.222656 C -127.367188 577.996094 -127.3125 575.773438 -127.203125 573.550781 C -127.09375 571.328125 -126.929688 569.109375 -126.714844 566.894531 C -126.496094 564.679688 -126.222656 562.472656 -125.894531 560.269531 C -125.570312 558.070312 -125.1875 555.878906 -124.753906 553.695312 C -124.320312 551.511719 -123.832031 549.34375 -123.292969 547.183594 C -122.753906 545.023438 -122.160156 542.882812 -121.511719 540.75 C -120.867188 538.621094 -120.167969 536.511719 -119.417969 534.414062 C -118.667969 532.320312 -117.871094 530.242188 -117.019531 528.1875 C -116.167969 526.132812 -115.265625 524.097656 -114.3125 522.085938 C -113.363281 520.074219 -112.363281 518.089844 -111.3125 516.125 C -110.261719 514.164062 -109.167969 512.226562 -108.023438 510.320312 C -106.878906 508.410156 -105.6875 506.53125 -104.453125 504.679688 C -103.214844 502.832031 -101.933594 501.011719 -100.609375 499.222656 C -99.285156 497.4375 -97.914062 495.683594 -96.503906 493.964844 C -95.09375 492.242188 -93.640625 490.558594 -92.144531 488.910156 C -90.652344 487.261719 -89.117188 485.648438 -87.542969 484.074219 C -85.96875 482.503906 -84.359375 480.96875 -82.710938 479.472656 C -81.0625 477.980469 -79.375 476.527344 -77.65625 475.113281 C -75.9375 473.703125 -74.183594 472.335938 -72.394531 471.007812 C -70.609375 469.683594 -68.789062 468.402344 -66.9375 467.167969 C -65.089844 465.929688 -63.207031 464.738281 -61.300781 463.597656 C -59.390625 462.453125 -57.457031 461.355469 -55.492188 460.304688 C -53.53125 459.257812 -51.542969 458.257812 -49.53125 457.304688 C -47.519531 456.355469 -45.488281 455.453125 -43.429688 454.601562 C -41.375 453.75 -39.300781 452.949219 -37.203125 452.199219 C -35.109375 451.449219 -32.996094 450.753906 -30.867188 450.105469 C -28.738281 449.460938 -26.59375 448.867188 -24.433594 448.328125 C -22.277344 447.785156 -20.105469 447.296875 -17.925781 446.863281 C -15.742188 446.429688 -13.550781 446.050781 -11.347656 445.722656 C -9.148438 445.398438 -6.9375 445.125 -4.726562 444.90625 C -2.511719 444.6875 -0.292969 444.523438 1.929688 444.414062 C 4.152344 444.304688 6.378906 444.25 8.601562 444.25 C 10.828125 444.25 13.050781 444.304688 15.273438 444.414062 C 17.496094 444.523438 19.714844 444.6875 21.929688 444.90625 C 24.144531 445.125 26.351562 445.398438 28.554688 445.722656 C 30.753906 446.050781 32.945312 446.429688 35.128906 446.863281 C 37.3125 447.296875 39.480469 447.785156 41.640625 448.328125 C 43.800781 448.867188 45.941406 449.460938 48.074219 450.105469 C 50.203125 450.753906 52.316406 451.449219 54.410156 452.199219 C 56.503906 452.949219 58.582031 453.75 60.636719 454.601562 C 62.691406 455.453125 64.726562 456.355469 66.738281 457.304688 C 68.75 458.257812 70.734375 459.257812 72.699219 460.304688 C 74.660156 461.355469 76.597656 462.453125 78.503906 463.597656 C 80.414062 464.738281 82.292969 465.929688 84.144531 467.167969 C 85.992188 468.402344 87.8125 469.683594 89.601562 471.007812 C 91.386719 472.335938 93.140625 473.703125 94.859375 475.113281 C 96.582031 476.527344 98.265625 477.980469 99.914062 479.472656 C 101.5625 480.96875 103.175781 482.503906 104.75 484.074219 C 106.320312 485.648438 107.855469 487.261719 109.351562 488.910156 C 110.84375 490.558594 112.296875 492.242188 113.710938 493.964844 C 115.121094 495.683594 116.488281 497.4375 117.816406 499.222656 C 119.140625 501.011719 120.421875 502.832031 121.65625 504.679688 C 122.894531 506.53125 124.085938 508.410156 125.226562 510.320312 C 126.371094 512.226562 127.46875 514.164062 128.519531 516.125 C 129.566406 518.089844 130.566406 520.074219 131.519531 522.085938 C 132.46875 524.097656 133.371094 526.132812 134.222656 528.1875 C 135.074219 530.242188 135.875 532.320312 136.625 534.414062 C 137.375 536.511719 138.070312 538.621094 138.71875 540.75 C 139.363281 542.882812 139.957031 545.023438 140.5 547.183594 C 141.039062 549.34375 141.527344 551.511719 141.960938 553.695312 C 142.394531 555.878906 142.773438 558.070312 143.101562 560.269531 C 143.429688 562.472656 143.699219 564.679688 143.917969 566.894531 C 144.136719 569.109375 144.300781 571.328125 144.410156 573.550781 C 144.519531 575.773438 144.574219 577.996094 144.574219 580.222656 Z M 144.574219 580.222656 " fill-opacity="1" fill-rule="nonzero"/></g><g clip-path="url(#id7)"><path fill="#fecf67" d="M 661.816406 -28.871094 L 901.53125 -28.871094 L 901.53125 139.6875 L 661.816406 139.6875 L 661.816406 -28.871094 " fill-opacity="1" fill-rule="nonzero"/></g><g clip-path="url(#id8)"><path fill="#eb5f6b" d="M 722.5625 150.742188 C 722.5625 233.949219 790.074219 301.628906 873.066406 301.628906 L 873.066406 238.136719 C 825 238.136719 785.894531 198.933594 785.894531 150.742188 C 785.894531 102.550781 825 63.34375 873.066406 63.34375 L 873.066406 -0.148438 C 790.105469 -0.148438 722.5625 67.535156 722.5625 150.742188 Z M 722.5625 150.742188 " fill-opacity="1" fill-rule="nonzero"/></g><g clip-path="url(#id9)"><path fill="#eb5f6b" d="M 199.238281 -93.222656 C 161.667969 -93.222656 131.066406 -62.621094 131.066406 -25.050781 C 131.066406 12.519531 161.667969 43.121094 199.238281 43.121094 C 236.808594 43.121094 267.410156 12.519531 267.410156 -25.050781 C 267.410156 -62.621094 236.808594 -93.222656 199.238281 -93.222656 Z M 199.238281 -79.589844 C 229.4375 -79.589844 253.777344 -55.25 253.777344 -25.050781 C 253.777344 5.152344 229.4375 29.488281 199.238281 29.488281 C 169.035156 29.488281 144.699219 5.152344 144.699219 -25.050781 C 144.699219 -55.25 169.035156 -79.589844 199.238281 -79.589844 Z M 199.238281 -79.589844 " fill-opacity="1" fill-rule="nonzero"/></g><g clip-path="url(#id10)"><path fill="#23547b" d="M 737.851562 64.75 C 737.851562 65.199219 737.9375 65.628906 738.109375 66.042969 C 738.28125 66.457031 738.523438 66.824219 738.839844 67.140625 C 739.15625 67.460938 739.523438 67.703125 739.9375 67.875 C 740.347656 68.046875 740.78125 68.132812 741.226562 68.132812 C 741.675781 68.132812 742.105469 68.046875 742.519531 67.875 C 742.933594 67.703125 743.296875 67.460938 743.613281 67.140625 C 743.929688 66.824219 744.175781 66.457031 744.347656 66.042969 C 744.519531 65.628906 744.605469 65.199219 744.605469 64.75 C 744.605469 64.300781 744.519531 63.867188 744.347656 63.453125 C 744.175781 63.039062 743.929688 62.671875 743.613281 62.355469 C 743.296875 62.039062 742.933594 61.792969 742.519531 61.621094 C 742.105469 61.449219 741.675781 61.363281 741.226562 61.363281 C 740.78125 61.363281 740.347656 61.449219 739.9375 61.621094 C 739.523438 61.792969 739.15625 62.039062 738.839844 62.355469 C 738.523438 62.671875 738.28125 63.039062 738.109375 63.453125 C 737.9375 63.867188 737.851562 64.300781 737.851562 64.75 Z M 737.851562 64.75 " fill-opacity="1" fill-rule="nonzero"/></g><g clip-path="url(#id11)"><path fill="#23547b" d="M 737.851562 84.226562 C 737.851562 84.675781 737.9375 85.105469 738.109375 85.523438 C 738.28125 85.9375 738.523438 86.300781 738.839844 86.621094 C 739.15625 86.9375 739.523438 87.179688 739.9375 87.351562 C 740.347656 87.523438 740.78125 87.609375 741.226562 87.609375 C 741.675781 87.609375 742.105469 87.523438 742.519531 87.351562 C 742.933594 87.179688 743.296875 86.9375 743.613281 86.621094 C 743.929688 86.300781 744.175781 85.9375 744.347656 85.523438 C 744.519531 85.105469 744.605469 84.675781 744.605469 84.226562 C 744.605469 83.777344 744.519531 83.347656 744.347656 82.929688 C 744.175781 82.515625 743.929688 82.152344 743.613281 81.832031 C 743.296875 81.515625 742.933594 81.273438 742.519531 81.101562 C 742.105469 80.929688 741.675781 80.84375 741.226562 80.84375 C 740.78125 80.84375 740.347656 80.929688 739.9375 81.101562 C 739.523438 81.273438 739.15625 81.515625 738.839844 81.832031 C 738.523438 82.152344 738.28125 82.515625 738.109375 82.929688 C 737.9375 83.347656 737.851562 83.777344 737.851562 84.226562 Z M 737.851562 84.226562 " fill-opacity="1" fill-rule="nonzero"/></g><g clip-path="url(#id12)"><path fill="#23547b" d="M 737.851562 103.703125 C 737.851562 104.152344 737.9375 104.585938 738.109375 105 C 738.28125 105.414062 738.523438 105.78125 738.839844 106.097656 C 739.15625 106.414062 739.523438 106.660156 739.9375 106.832031 C 740.347656 107.003906 740.78125 107.089844 741.226562 107.089844 C 741.675781 107.089844 742.105469 107.003906 742.519531 106.832031 C 742.933594 106.660156 743.296875 106.414062 743.613281 106.097656 C 743.929688 105.78125 744.175781 105.414062 744.347656 105 C 744.519531 104.585938 744.605469 104.152344 744.605469 103.703125 C 744.605469 103.253906 744.519531 102.824219 744.347656 102.410156 C 744.175781 101.996094 743.929688 101.628906 743.613281 101.3125 C 743.296875 100.992188 742.933594 100.75 742.519531 100.578125 C 742.105469 100.40625 741.675781 100.320312 741.226562 100.320312 C 740.78125 100.320312 740.347656 100.40625 739.9375 100.578125 C 739.523438 100.75 739.15625 100.992188 738.839844 101.3125 C 738.523438 101.628906 738.28125 101.996094 738.109375 102.410156 C 737.9375 102.824219 737.851562 103.253906 737.851562 103.703125 Z M 737.851562 103.703125 " fill-opacity="1" fill-rule="nonzero"/></g><g clip-path="url(#id13)"><path fill="#23547b" d="M 737.851562 123.175781 C 737.851562 123.625 737.9375 124.058594 738.109375 124.472656 C 738.28125 124.886719 738.523438 125.253906 738.839844 125.570312 C 739.15625 125.886719 739.523438 126.132812 739.9375 126.304688 C 740.347656 126.476562 740.78125 126.5625 741.226562 126.5625 C 741.675781 126.5625 742.105469 126.476562 742.519531 126.304688 C 742.933594 126.132812 743.296875 125.886719 743.613281 125.570312 C 743.929688 125.253906 744.175781 124.886719 744.347656 124.472656 C 744.519531 124.058594 744.605469 123.625 744.605469 123.175781 C 744.605469 122.726562 744.519531 122.296875 744.347656 121.882812 C 744.175781 121.46875 743.929688 121.101562 743.613281 120.785156 C 743.296875 120.464844 742.933594 120.222656 742.519531 120.050781 C 742.105469 119.878906 741.675781 119.792969 741.226562 119.792969 C 740.78125 119.792969 740.347656 119.878906 739.9375 120.050781 C 739.523438 120.222656 739.15625 120.464844 738.839844 120.785156 C 738.523438 121.101562 738.28125 121.46875 738.109375 121.882812 C 737.9375 122.296875 737.851562 122.726562 737.851562 123.175781 Z M 737.851562 123.175781 " fill-opacity="1" fill-rule="nonzero"/></g><path fill="#23547b" d="M 718.433594 45.28125 C 718.433594 45.730469 718.519531 46.160156 718.6875 46.578125 C 718.859375 46.992188 719.105469 47.355469 719.421875 47.675781 C 719.738281 47.992188 720.101562 48.234375 720.515625 48.40625 C 720.929688 48.578125 721.359375 48.664062 721.808594 48.664062 C 722.253906 48.664062 722.6875 48.578125 723.101562 48.40625 C 723.511719 48.234375 723.878906 47.992188 724.195312 47.675781 C 724.511719 47.355469 724.753906 46.992188 724.925781 46.578125 C 725.097656 46.160156 725.183594 45.730469 725.183594 45.28125 C 725.183594 44.832031 725.097656 44.402344 724.925781 43.984375 C 724.753906 43.570312 724.511719 43.207031 724.195312 42.886719 C 723.878906 42.570312 723.511719 42.328125 723.101562 42.15625 C 722.6875 41.984375 722.253906 41.898438 721.808594 41.898438 C 721.359375 41.898438 720.929688 41.984375 720.515625 42.15625 C 720.101562 42.328125 719.738281 42.570312 719.421875 42.886719 C 719.105469 43.207031 718.859375 43.570312 718.6875 43.984375 C 718.519531 44.402344 718.433594 44.832031 718.433594 45.28125 Z M 718.433594 45.28125 " fill-opacity="1" fill-rule="nonzero"/><path fill="#23547b" d="M 718.433594 64.757812 C 718.433594 65.207031 718.519531 65.640625 718.6875 66.054688 C 718.859375 66.46875 719.105469 66.835938 719.421875 67.152344 C 719.738281 67.46875 720.101562 67.714844 720.515625 67.886719 C 720.929688 68.058594 721.359375 68.144531 721.808594 68.144531 C 722.253906 68.144531 722.6875 68.058594 723.101562 67.886719 C 723.511719 67.714844 723.878906 67.46875 724.195312 67.152344 C 724.511719 66.835938 724.753906 66.46875 724.925781 66.054688 C 725.097656 65.640625 725.183594 65.207031 725.183594 64.757812 C 725.183594 64.308594 725.097656 63.878906 724.925781 63.464844 C 724.753906 63.050781 724.511719 62.683594 724.195312 62.367188 C 723.878906 62.046875 723.511719 61.804688 723.101562 61.632812 C 722.6875 61.460938 722.253906 61.375 721.808594 61.375 C 721.359375 61.375 720.929688 61.460938 720.515625 61.632812 C 720.101562 61.804688 719.738281 62.046875 719.421875 62.367188 C 719.105469 62.683594 718.859375 63.050781 718.6875 63.464844 C 718.519531 63.878906 718.433594 64.308594 718.433594 64.757812 Z M 718.433594 64.757812 " fill-opacity="1" fill-rule="nonzero"/><path fill="#23547b" d="M 718.433594 84.230469 C 718.433594 84.679688 718.519531 85.113281 718.6875 85.527344 C 718.859375 85.941406 719.105469 86.308594 719.421875 86.625 C 719.738281 86.941406 720.101562 87.1875 720.515625 87.359375 C 720.929688 87.53125 721.359375 87.617188 721.808594 87.617188 C 722.253906 87.617188 722.6875 87.53125 723.101562 87.359375 C 723.511719 87.1875 723.878906 86.941406 724.195312 86.625 C 724.511719 86.308594 724.753906 85.941406 724.925781 85.527344 C 725.097656 85.113281 725.183594 84.679688 725.183594 84.230469 C 725.183594 83.78125 725.097656 83.351562 724.925781 82.9375 C 724.753906 82.523438 724.511719 82.15625 724.195312 81.839844 C 723.878906 81.519531 723.511719 81.277344 723.101562 81.105469 C 722.6875 80.933594 722.253906 80.847656 721.808594 80.847656 C 721.359375 80.847656 720.929688 80.933594 720.515625 81.105469 C 720.101562 81.277344 719.738281 81.519531 719.421875 81.839844 C 719.105469 82.15625 718.859375 82.523438 718.6875 82.9375 C 718.519531 83.351562 718.433594 83.78125 718.433594 84.230469 Z M 718.433594 84.230469 " fill-opacity="1" fill-rule="nonzero"/><path fill="#23547b" d="M 718.433594 103.710938 C 718.433594 104.160156 718.519531 104.589844 718.6875 105.003906 C 718.859375 105.417969 719.105469 105.785156 719.421875 106.101562 C 719.738281 106.417969 720.101562 106.664062 720.515625 106.835938 C 720.929688 107.007812 721.359375 107.09375 721.808594 107.09375 C 722.253906 107.09375 722.6875 107.007812 723.101562 106.835938 C 723.511719 106.664062 723.878906 106.417969 724.195312 106.101562 C 724.511719 105.785156 724.753906 105.417969 724.925781 105.003906 C 725.097656 104.589844 725.183594 104.160156 725.183594 103.710938 C 725.183594 103.261719 725.097656 102.828125 724.925781 102.414062 C 724.753906 102 724.511719 101.632812 724.195312 101.316406 C 723.878906 101 723.511719 100.753906 723.101562 100.582031 C 722.6875 100.410156 722.253906 100.324219 721.808594 100.324219 C 721.359375 100.324219 720.929688 100.410156 720.515625 100.582031 C 720.101562 100.753906 719.738281 101 719.421875 101.316406 C 719.105469 101.632812 718.859375 102 718.6875 102.414062 C 718.519531 102.828125 718.433594 103.261719 718.433594 103.710938 Z M 718.433594 103.710938 " fill-opacity="1" fill-rule="nonzero"/><g clip-path="url(#id14)"><path fill="#23547b" d="M 699.011719 25.8125 C 699.011719 26.261719 699.097656 26.695312 699.269531 27.109375 C 699.441406 27.523438 699.683594 27.890625 700 28.207031 C 700.316406 28.523438 700.683594 28.769531 701.097656 28.941406 C 701.511719 29.113281 701.941406 29.199219 702.386719 29.199219 C 702.835938 29.199219 703.265625 29.113281 703.679688 28.941406 C 704.09375 28.769531 704.460938 28.523438 704.777344 28.207031 C 705.09375 27.890625 705.335938 27.523438 705.507812 27.109375 C 705.679688 26.695312 705.765625 26.261719 705.765625 25.8125 C 705.765625 25.363281 705.679688 24.933594 705.507812 24.519531 C 705.335938 24.105469 705.09375 23.738281 704.777344 23.421875 C 704.460938 23.101562 704.09375 22.859375 703.679688 22.6875 C 703.265625 22.515625 702.835938 22.429688 702.386719 22.429688 C 701.941406 22.429688 701.511719 22.515625 701.097656 22.6875 C 700.683594 22.859375 700.316406 23.101562 700 23.421875 C 699.683594 23.738281 699.441406 24.105469 699.269531 24.519531 C 699.097656 24.933594 699.011719 25.363281 699.011719 25.8125 Z M 699.011719 25.8125 " fill-opacity="1" fill-rule="nonzero"/></g><path fill="#23547b" d="M 699.011719 45.285156 C 699.011719 45.734375 699.097656 46.167969 699.269531 46.582031 C 699.441406 46.996094 699.683594 47.363281 700 47.679688 C 700.316406 47.996094 700.683594 48.242188 701.097656 48.414062 C 701.511719 48.585938 701.941406 48.671875 702.386719 48.671875 C 702.835938 48.671875 703.265625 48.585938 703.679688 48.414062 C 704.09375 48.242188 704.460938 47.996094 704.777344 47.679688 C 705.09375 47.363281 705.335938 46.996094 705.507812 46.582031 C 705.679688 46.167969 705.765625 45.734375 705.765625 45.285156 C 705.765625 44.835938 705.679688 44.40625 705.507812 43.992188 C 705.335938 43.578125 705.09375 43.210938 704.777344 42.894531 C 704.460938 42.574219 704.09375 42.332031 703.679688 42.160156 C 703.265625 41.988281 702.835938 41.902344 702.386719 41.902344 C 701.941406 41.902344 701.511719 41.988281 701.097656 42.160156 C 700.683594 42.332031 700.316406 42.574219 700 42.894531 C 699.683594 43.210938 699.441406 43.578125 699.269531 43.992188 C 699.097656 44.40625 699.011719 44.835938 699.011719 45.285156 Z M 699.011719 45.285156 " fill-opacity="1" fill-rule="nonzero"/><path fill="#23547b" d="M 699.011719 64.765625 C 699.011719 65.214844 699.097656 65.644531 699.269531 66.058594 C 699.441406 66.472656 699.683594 66.839844 700 67.15625 C 700.316406 67.476562 700.683594 67.71875 701.097656 67.890625 C 701.511719 68.0625 701.941406 68.148438 702.386719 68.148438 C 702.835938 68.148438 703.265625 68.0625 703.679688 67.890625 C 704.09375 67.71875 704.460938 67.476562 704.777344 67.15625 C 705.09375 66.839844 705.335938 66.472656 705.507812 66.058594 C 705.679688 65.644531 705.765625 65.214844 705.765625 64.765625 C 705.765625 64.316406 705.679688 63.882812 705.507812 63.46875 C 705.335938 63.054688 705.09375 62.6875 704.777344 62.371094 C 704.460938 62.054688 704.09375 61.808594 703.679688 61.636719 C 703.265625 61.464844 702.835938 61.378906 702.386719 61.378906 C 701.941406 61.378906 701.511719 61.464844 701.097656 61.636719 C 700.683594 61.808594 700.316406 62.054688 700 62.371094 C 699.683594 62.6875 699.441406 63.054688 699.269531 63.46875 C 699.097656 63.882812 699.011719 64.316406 699.011719 64.765625 Z M 699.011719 64.765625 " fill-opacity="1" fill-rule="nonzero"/><path fill="#23547b" d="M 699.011719 84.242188 C 699.011719 84.691406 699.097656 85.121094 699.269531 85.539062 C 699.441406 85.953125 699.683594 86.316406 700 86.636719 C 700.316406 86.953125 700.683594 87.195312 701.097656 87.367188 C 701.511719 87.539062 701.941406 87.625 702.386719 87.625 C 702.835938 87.625 703.265625 87.539062 703.679688 87.367188 C 704.09375 87.195312 704.460938 86.953125 704.777344 86.636719 C 705.09375 86.316406 705.335938 85.953125 705.507812 85.539062 C 705.679688 85.121094 705.765625 84.691406 705.765625 84.242188 C 705.765625 83.792969 705.679688 83.363281 705.507812 82.945312 C 705.335938 82.53125 705.09375 82.167969 704.777344 81.847656 C 704.460938 81.53125 704.09375 81.289062 703.679688 81.117188 C 703.265625 80.945312 702.835938 80.859375 702.386719 80.859375 C 701.941406 80.859375 701.511719 80.945312 701.097656 81.117188 C 700.683594 81.289062 700.316406 81.53125 700 81.847656 C 699.683594 82.167969 699.441406 82.53125 699.269531 82.945312 C 699.097656 83.363281 699.011719 83.792969 699.011719 84.242188 Z M 699.011719 84.242188 " fill-opacity="1" fill-rule="nonzero"/><g clip-path="url(#id15)"><path fill="#eb5f6b" d="M 115.96875 514.910156 C 115.96875 515.359375 116.054688 515.792969 116.226562 516.207031 C 116.398438 516.621094 116.640625 516.988281 116.957031 517.304688 C 117.277344 517.621094 117.640625 517.867188 118.054688 518.039062 C 118.46875 518.210938 118.898438 518.296875 119.347656 518.296875 C 119.792969 518.296875 120.222656 518.210938 120.636719 518.039062 C 121.050781 517.867188 121.417969 517.621094 121.734375 517.304688 C 122.050781 516.988281 122.292969 516.621094 122.464844 516.207031 C 122.636719 515.792969 122.722656 515.359375 122.722656 514.910156 C 122.722656 514.460938 122.636719 514.03125 122.464844 513.617188 C 122.292969 513.199219 122.050781 512.835938 121.734375 512.519531 C 121.417969 512.199219 121.050781 511.957031 120.636719 511.785156 C 120.222656 511.613281 119.792969 511.527344 119.347656 511.527344 C 118.898438 511.527344 118.46875 511.613281 118.054688 511.785156 C 117.640625 511.957031 117.277344 512.199219 116.957031 512.519531 C 116.640625 512.835938 116.398438 513.199219 116.226562 513.617188 C 116.054688 514.03125 115.96875 514.460938 115.96875 514.910156 Z M 115.96875 514.910156 " fill-opacity="1" fill-rule="nonzero"/></g><g clip-path="url(#id16)"><path fill="#eb5f6b" d="M 115.96875 534.386719 C 115.96875 534.835938 116.054688 535.269531 116.226562 535.683594 C 116.398438 536.097656 116.640625 536.464844 116.957031 536.78125 C 117.277344 537.097656 117.640625 537.34375 118.054688 537.515625 C 118.46875 537.6875 118.898438 537.773438 119.347656 537.773438 C 119.792969 537.773438 120.222656 537.6875 120.636719 537.515625 C 121.050781 537.34375 121.417969 537.097656 121.734375 536.78125 C 122.050781 536.464844 122.292969 536.097656 122.464844 535.683594 C 122.636719 535.269531 122.722656 534.835938 122.722656 534.386719 C 122.722656 533.941406 122.636719 533.507812 122.464844 533.09375 C 122.292969 532.679688 122.050781 532.3125 121.734375 531.996094 C 121.417969 531.679688 121.050781 531.433594 120.636719 531.261719 C 120.222656 531.089844 119.792969 531.003906 119.347656 531.003906 C 118.898438 531.003906 118.46875 531.089844 118.054688 531.261719 C 117.640625 531.433594 117.277344 531.679688 116.957031 531.996094 C 116.640625 532.3125 116.398438 532.679688 116.226562 533.09375 C 116.054688 533.507812 115.96875 533.941406 115.96875 534.386719 Z M 115.96875 534.386719 " fill-opacity="1" fill-rule="nonzero"/></g><g clip-path="url(#id17)"><path fill="#eb5f6b" d="M 115.96875 553.867188 C 115.96875 554.316406 116.054688 554.746094 116.226562 555.160156 C 116.398438 555.574219 116.640625 555.941406 116.957031 556.257812 C 117.277344 556.578125 117.640625 556.820312 118.054688 556.992188 C 118.46875 557.164062 118.898438 557.25 119.347656 557.25 C 119.792969 557.25 120.222656 557.164062 120.636719 556.992188 C 121.050781 556.820312 121.417969 556.578125 121.734375 556.257812 C 122.050781 555.941406 122.292969 555.574219 122.464844 555.160156 C 122.636719 554.746094 122.722656 554.316406 122.722656 553.867188 C 122.722656 553.417969 122.636719 552.984375 122.464844 552.570312 C 122.292969 552.15625 122.050781 551.789062 121.734375 551.472656 C 121.417969 551.15625 121.050781 550.910156 120.636719 550.738281 C 120.222656 550.566406 119.792969 550.480469 119.347656 550.480469 C 118.898438 550.480469 118.46875 550.566406 118.054688 550.738281 C 117.640625 550.910156 117.277344 551.15625 116.957031 551.472656 C 116.640625 551.789062 116.398438 552.15625 116.226562 552.570312 C 116.054688 552.984375 115.96875 553.417969 115.96875 553.867188 Z M 115.96875 553.867188 " fill-opacity="1" fill-rule="nonzero"/></g><g clip-path="url(#id18)"><path fill="#eb5f6b" d="M 115.96875 573.339844 C 115.96875 573.789062 116.054688 574.21875 116.226562 574.632812 C 116.398438 575.046875 116.640625 575.414062 116.957031 575.730469 C 117.277344 576.050781 117.640625 576.292969 118.054688 576.464844 C 118.46875 576.636719 118.898438 576.722656 119.347656 576.722656 C 119.792969 576.722656 120.222656 576.636719 120.636719 576.464844 C 121.050781 576.292969 121.417969 576.050781 121.734375 575.730469 C 122.050781 575.414062 122.292969 575.046875 122.464844 574.632812 C 122.636719 574.21875 122.722656 573.789062 122.722656 573.339844 C 122.722656 572.890625 122.636719 572.457031 122.464844 572.042969 C 122.292969 571.628906 122.050781 571.261719 121.734375 570.945312 C 121.417969 570.628906 121.050781 570.382812 120.636719 570.210938 C 120.222656 570.039062 119.792969 569.953125 119.347656 569.953125 C 118.898438 569.953125 118.46875 570.039062 118.054688 570.210938 C 117.640625 570.382812 117.277344 570.628906 116.957031 570.945312 C 116.640625 571.261719 116.398438 571.628906 116.226562 572.042969 C 116.054688 572.457031 115.96875 572.890625 115.96875 573.339844 Z M 115.96875 573.339844 " fill-opacity="1" fill-rule="nonzero"/></g><path fill="#eb5f6b" d="M 96.550781 495.441406 C 96.550781 495.890625 96.636719 496.324219 96.808594 496.738281 C 96.980469 497.152344 97.222656 497.519531 97.539062 497.835938 C 97.855469 498.152344 98.222656 498.398438 98.632812 498.570312 C 99.046875 498.742188 99.480469 498.828125 99.925781 498.828125 C 100.375 498.828125 100.804688 498.742188 101.21875 498.570312 C 101.632812 498.398438 101.996094 498.152344 102.3125 497.835938 C 102.628906 497.519531 102.875 497.152344 103.046875 496.738281 C 103.214844 496.324219 103.300781 495.890625 103.300781 495.441406 C 103.300781 494.996094 103.214844 494.5625 103.046875 494.148438 C 102.875 493.734375 102.628906 493.367188 102.3125 493.050781 C 101.996094 492.734375 101.632812 492.488281 101.21875 492.316406 C 100.804688 492.144531 100.375 492.058594 99.925781 492.058594 C 99.480469 492.058594 99.046875 492.144531 98.632812 492.316406 C 98.222656 492.488281 97.855469 492.734375 97.539062 493.050781 C 97.222656 493.367188 96.980469 493.734375 96.808594 494.148438 C 96.636719 494.5625 96.550781 494.996094 96.550781 495.441406 Z M 96.550781 495.441406 " fill-opacity="1" fill-rule="nonzero"/><path fill="#eb5f6b" d="M 96.550781 514.921875 C 96.550781 515.371094 96.636719 515.800781 96.808594 516.214844 C 96.980469 516.628906 97.222656 516.996094 97.539062 517.3125 C 97.855469 517.632812 98.222656 517.875 98.632812 518.046875 C 99.046875 518.21875 99.480469 518.304688 99.925781 518.304688 C 100.375 518.304688 100.804688 518.21875 101.21875 518.046875 C 101.632812 517.875 101.996094 517.632812 102.3125 517.3125 C 102.628906 516.996094 102.875 516.628906 103.046875 516.214844 C 103.214844 515.800781 103.300781 515.371094 103.300781 514.921875 C 103.300781 514.472656 103.214844 514.039062 103.046875 513.625 C 102.875 513.210938 102.628906 512.84375 102.3125 512.527344 C 101.996094 512.210938 101.632812 511.964844 101.21875 511.792969 C 100.804688 511.621094 100.375 511.535156 99.925781 511.535156 C 99.480469 511.535156 99.046875 511.621094 98.632812 511.792969 C 98.222656 511.964844 97.855469 512.210938 97.539062 512.527344 C 97.222656 512.84375 96.980469 513.210938 96.808594 513.625 C 96.636719 514.039062 96.550781 514.472656 96.550781 514.921875 Z M 96.550781 514.921875 " fill-opacity="1" fill-rule="nonzero"/><path fill="#eb5f6b" d="M 96.550781 534.394531 C 96.550781 534.84375 96.636719 535.273438 96.808594 535.6875 C 96.980469 536.101562 97.222656 536.46875 97.539062 536.785156 C 97.855469 537.105469 98.222656 537.347656 98.632812 537.519531 C 99.046875 537.691406 99.480469 537.777344 99.925781 537.777344 C 100.375 537.777344 100.804688 537.691406 101.21875 537.519531 C 101.632812 537.347656 101.996094 537.105469 102.3125 536.785156 C 102.628906 536.46875 102.875 536.101562 103.046875 535.6875 C 103.214844 535.273438 103.300781 534.84375 103.300781 534.394531 C 103.300781 533.945312 103.214844 533.511719 103.046875 533.097656 C 102.875 532.683594 102.628906 532.316406 102.3125 532 C 101.996094 531.683594 101.632812 531.4375 101.21875 531.265625 C 100.804688 531.09375 100.375 531.007812 99.925781 531.007812 C 99.480469 531.007812 99.046875 531.09375 98.632812 531.265625 C 98.222656 531.4375 97.855469 531.683594 97.539062 532 C 97.222656 532.316406 96.980469 532.683594 96.808594 533.097656 C 96.636719 533.511719 96.550781 533.945312 96.550781 534.394531 Z M 96.550781 534.394531 " fill-opacity="1" fill-rule="nonzero"/><path fill="#eb5f6b" d="M 96.550781 553.871094 C 96.550781 554.320312 96.636719 554.753906 96.808594 555.167969 C 96.980469 555.582031 97.222656 555.945312 97.539062 556.265625 C 97.855469 556.582031 98.222656 556.828125 98.632812 557 C 99.046875 557.171875 99.480469 557.253906 99.925781 557.253906 C 100.375 557.253906 100.804688 557.171875 101.21875 557 C 101.632812 556.828125 101.996094 556.582031 102.3125 556.265625 C 102.628906 555.945312 102.875 555.582031 103.046875 555.167969 C 103.214844 554.753906 103.300781 554.320312 103.300781 553.871094 C 103.300781 553.421875 103.214844 552.992188 103.046875 552.578125 C 102.875 552.160156 102.628906 551.796875 102.3125 551.476562 C 101.996094 551.160156 101.632812 550.917969 101.21875 550.746094 C 100.804688 550.574219 100.375 550.488281 99.925781 550.488281 C 99.480469 550.488281 99.046875 550.574219 98.632812 550.746094 C 98.222656 550.917969 97.855469 551.160156 97.539062 551.476562 C 97.222656 551.796875 96.980469 552.160156 96.808594 552.578125 C 96.636719 552.992188 96.550781 553.421875 96.550781 553.871094 Z M 96.550781 553.871094 " fill-opacity="1" fill-rule="nonzero"/><g clip-path="url(#id19)"><path fill="#eb5f6b" d="M 77.128906 475.976562 C 77.128906 476.425781 77.214844 476.855469 77.386719 477.269531 C 77.558594 477.6875 77.804688 478.050781 78.121094 478.367188 C 78.4375 478.6875 78.800781 478.929688 79.214844 479.101562 C 79.628906 479.273438 80.058594 479.359375 80.507812 479.359375 C 80.953125 479.359375 81.386719 479.273438 81.796875 479.101562 C 82.210938 478.929688 82.578125 478.6875 82.894531 478.367188 C 83.210938 478.050781 83.453125 477.6875 83.625 477.269531 C 83.796875 476.855469 83.882812 476.425781 83.882812 475.976562 C 83.882812 475.527344 83.796875 475.09375 83.625 474.679688 C 83.453125 474.265625 83.210938 473.898438 82.894531 473.582031 C 82.578125 473.265625 82.210938 473.019531 81.796875 472.847656 C 81.386719 472.675781 80.953125 472.589844 80.507812 472.589844 C 80.058594 472.589844 79.628906 472.675781 79.214844 472.847656 C 78.800781 473.019531 78.4375 473.265625 78.121094 473.582031 C 77.804688 473.898438 77.558594 474.265625 77.386719 474.679688 C 77.214844 475.09375 77.128906 475.527344 77.128906 475.976562 Z M 77.128906 475.976562 " fill-opacity="1" fill-rule="nonzero"/></g><g clip-path="url(#id20)"><path fill="#eb5f6b" d="M 77.128906 495.449219 C 77.128906 495.898438 77.214844 496.328125 77.386719 496.742188 C 77.558594 497.160156 77.804688 497.523438 78.121094 497.839844 C 78.4375 498.160156 78.800781 498.402344 79.214844 498.574219 C 79.628906 498.746094 80.058594 498.832031 80.507812 498.832031 C 80.953125 498.832031 81.386719 498.746094 81.796875 498.574219 C 82.210938 498.402344 82.578125 498.160156 82.894531 497.839844 C 83.210938 497.523438 83.453125 497.160156 83.625 496.742188 C 83.796875 496.328125 83.882812 495.898438 83.882812 495.449219 C 83.882812 495 83.796875 494.566406 83.625 494.152344 C 83.453125 493.738281 83.210938 493.371094 82.894531 493.054688 C 82.578125 492.738281 82.210938 492.492188 81.796875 492.320312 C 81.386719 492.148438 80.953125 492.0625 80.507812 492.0625 C 80.058594 492.0625 79.628906 492.148438 79.214844 492.320312 C 78.800781 492.492188 78.4375 492.738281 78.121094 493.054688 C 77.804688 493.371094 77.558594 493.738281 77.386719 494.152344 C 77.214844 494.566406 77.128906 495 77.128906 495.449219 Z M 77.128906 495.449219 " fill-opacity="1" fill-rule="nonzero"/></g><g clip-path="url(#id21)"><path fill="#eb5f6b" d="M 77.128906 514.925781 C 77.128906 515.375 77.214844 515.808594 77.386719 516.222656 C 77.558594 516.636719 77.804688 517.003906 78.121094 517.320312 C 78.4375 517.636719 78.800781 517.882812 79.214844 518.054688 C 79.628906 518.226562 80.058594 518.3125 80.507812 518.3125 C 80.953125 518.3125 81.386719 518.226562 81.796875 518.054688 C 82.210938 517.882812 82.578125 517.636719 82.894531 517.320312 C 83.210938 517.003906 83.453125 516.636719 83.625 516.222656 C 83.796875 515.808594 83.882812 515.375 83.882812 514.925781 C 83.882812 514.476562 83.796875 514.046875 83.625 513.632812 C 83.453125 513.214844 83.210938 512.851562 82.894531 512.535156 C 82.578125 512.214844 82.210938 511.972656 81.796875 511.800781 C 81.386719 511.628906 80.953125 511.542969 80.507812 511.542969 C 80.058594 511.542969 79.628906 511.628906 79.214844 511.800781 C 78.800781 511.972656 78.4375 512.214844 78.121094 512.535156 C 77.804688 512.851562 77.558594 513.214844 77.386719 513.632812 C 77.214844 514.046875 77.128906 514.476562 77.128906 514.925781 Z M 77.128906 514.925781 " fill-opacity="1" fill-rule="nonzero"/></g><g clip-path="url(#id22)"><path fill="#eb5f6b" d="M 77.128906 534.402344 C 77.128906 534.851562 77.214844 535.285156 77.386719 535.699219 C 77.558594 536.113281 77.804688 536.480469 78.121094 536.796875 C 78.4375 537.113281 78.800781 537.359375 79.214844 537.53125 C 79.628906 537.703125 80.058594 537.789062 80.507812 537.789062 C 80.953125 537.789062 81.386719 537.703125 81.796875 537.53125 C 82.210938 537.359375 82.578125 537.113281 82.894531 536.796875 C 83.210938 536.480469 83.453125 536.113281 83.625 535.699219 C 83.796875 535.285156 83.882812 534.851562 83.882812 534.402344 C 83.882812 533.957031 83.796875 533.523438 83.625 533.109375 C 83.453125 532.695312 83.210938 532.328125 82.894531 532.011719 C 82.578125 531.695312 82.210938 531.449219 81.796875 531.277344 C 81.386719 531.105469 80.953125 531.019531 80.507812 531.019531 C 80.058594 531.019531 79.628906 531.105469 79.214844 531.277344 C 78.800781 531.449219 78.4375 531.695312 78.121094 532.011719 C 77.804688 532.328125 77.558594 532.695312 77.386719 533.109375 C 77.214844 533.523438 77.128906 533.957031 77.128906 534.402344 Z M 77.128906 534.402344 " fill-opacity="1" fill-rule="nonzero"/></g><g clip-path="url(#id23)"><path fill="#fecf67" d="M 25.230469 400.167969 L 25.230469 472.800781 L 43.210938 472.800781 L 43.210938 400.167969 L 25.230469 400.167969 M 38.695312 468.242188 L 29.652344 468.242188 L 29.652344 404.632812 L 38.695312 404.632812 L 38.695312 468.242188 " fill-opacity="1" fill-rule="nonzero"/></g><g clip-path="url(#id24)"><path fill="#23547b" d="M 812.632812 268.753906 L 826.867188 268.753906 L 826.867188 383.347656 L 812.632812 383.347656 L 812.632812 268.753906 " fill-opacity="1" fill-rule="nonzero"/></g><g clip-path="url(#id25)"><path fill="#fecf67" d="M -27.769531 115.144531 L 77.109375 115.144531 L 77.109375 246.246094 L -27.769531 246.246094 L -27.769531 115.144531 " fill-opacity="1" fill-rule="nonzero"/></g><g clip-path="url(#id26)"><path fill="#23547b" d="M 156.039062 146.289062 C 152.394531 146.289062 150.445312 144.945312 148.875 143.863281 C 147.53125 142.9375 146.558594 142.265625 144.371094 142.265625 C 142.183594 142.265625 141.210938 142.9375 139.867188 143.863281 C 138.300781 144.945312 136.351562 146.289062 132.703125 146.289062 C 129.058594 146.289062 127.105469 144.945312 125.539062 143.863281 C 124.195312 142.9375 123.222656 142.265625 121.035156 142.265625 C 118.847656 142.265625 117.878906 142.9375 116.535156 143.863281 C 114.964844 144.945312 113.015625 146.289062 109.371094 146.289062 C 105.722656 146.289062 103.773438 144.945312 102.207031 143.863281 C 100.863281 142.9375 99.890625 142.265625 97.703125 142.265625 C 95.515625 142.265625 94.542969 142.9375 93.199219 143.863281 C 91.632812 144.945312 89.683594 146.289062 86.035156 146.289062 C 82.390625 146.289062 80.441406 144.945312 78.875 143.863281 C 77.53125 142.9375 76.558594 142.265625 74.371094 142.265625 C 72.183594 142.265625 71.214844 142.9375 69.867188 143.863281 C 68.300781 144.945312 66.351562 146.289062 62.707031 146.289062 C 59.0625 146.289062 57.109375 144.945312 55.542969 143.863281 C 54.199219 142.9375 53.226562 142.265625 51.039062 142.265625 L 51.039062 137.574219 C 54.6875 137.574219 56.636719 138.917969 58.203125 140 C 59.546875 140.925781 60.519531 141.59375 62.707031 141.59375 C 64.894531 141.59375 65.863281 140.925781 67.207031 140 C 68.777344 138.917969 70.726562 137.574219 74.371094 137.574219 C 78.015625 137.574219 79.96875 138.917969 81.535156 140 C 82.878906 140.925781 83.847656 141.59375 86.035156 141.59375 C 88.222656 141.59375 89.195312 140.925781 90.539062 140 C 92.105469 138.917969 94.058594 137.574219 97.703125 137.574219 C 101.347656 137.574219 103.300781 138.917969 104.867188 140 C 106.210938 140.925781 107.183594 141.59375 109.371094 141.59375 C 111.558594 141.59375 112.527344 140.925781 113.875 140 C 115.441406 138.917969 117.390625 137.574219 121.035156 137.574219 C 124.683594 137.574219 126.632812 138.917969 128.199219 140 C 129.542969 140.925781 130.515625 141.59375 132.703125 141.59375 C 134.890625 141.59375 135.863281 140.925781 137.207031 140 C 138.777344 138.917969 140.726562 137.574219 144.371094 137.574219 C 148.019531 137.574219 149.96875 138.917969 151.535156 140 C 152.882812 140.925781 153.851562 141.59375 156.039062 141.59375 Z M 156.039062 159.300781 C 152.394531 159.300781 150.445312 157.957031 148.875 156.875 C 147.53125 155.949219 146.558594 155.277344 144.371094 155.277344 C 142.183594 155.277344 141.210938 155.949219 139.867188 156.875 C 138.300781 157.957031 136.351562 159.300781 132.703125 159.300781 C 129.058594 159.300781 127.105469 157.957031 125.539062 156.875 C 124.195312 155.949219 123.222656 155.277344 121.035156 155.277344 C 118.847656 155.277344 117.878906 155.949219 116.535156 156.875 C 114.964844 157.957031 113.015625 159.300781 109.371094 159.300781 C 105.722656 159.300781 103.773438 157.957031 102.207031 156.875 C 100.863281 155.949219 99.890625 155.277344 97.703125 155.277344 C 95.515625 155.277344 94.542969 155.949219 93.199219 156.875 C 91.632812 157.957031 89.683594 159.300781 86.035156 159.300781 C 82.390625 159.300781 80.441406 157.957031 78.875 156.875 C 77.53125 155.949219 76.558594 155.277344 74.371094 155.277344 C 72.183594 155.277344 71.214844 155.949219 69.867188 156.875 C 68.300781 157.957031 66.351562 159.300781 62.707031 159.300781 C 59.0625 159.300781 57.109375 157.957031 55.542969 156.875 C 54.199219 155.949219 53.226562 155.277344 51.039062 155.277344 L 51.039062 150.582031 C 54.6875 150.582031 56.636719 151.929688 58.203125 153.007812 C 59.546875 153.9375 60.519531 154.605469 62.707031 154.605469 C 64.894531 154.605469 65.863281 153.9375 67.207031 153.007812 C 68.777344 151.929688 70.726562 150.582031 74.371094 150.582031 C 78.015625 150.582031 79.96875 151.929688 81.535156 153.007812 C 82.878906 153.9375 83.847656 154.605469 86.035156 154.605469 C 88.222656 154.605469 89.195312 153.9375 90.539062 153.007812 C 92.105469 151.929688 94.058594 150.582031 97.703125 150.582031 C 101.347656 150.582031 103.300781 151.929688 104.867188 153.007812 C 106.210938 153.9375 107.183594 154.605469 109.371094 154.605469 C 111.558594 154.605469 112.527344 153.9375 113.875 153.007812 C 115.441406 151.929688 117.390625 150.582031 121.035156 150.582031 C 124.683594 150.582031 126.632812 151.929688 128.199219 153.007812 C 129.542969 153.9375 130.515625 154.605469 132.703125 154.605469 C 134.890625 154.605469 135.863281 153.9375 137.207031 153.007812 C 138.773438 151.929688 140.726562 150.582031 144.371094 150.582031 C 148.019531 150.582031 149.96875 151.929688 151.535156 153.007812 C 152.882812 153.9375 153.851562 154.605469 156.039062 154.605469 Z M 156.039062 159.300781 " fill-opacity="1" fill-rule="nonzero"/></g><g clip-path="url(#id27)"><path fill="#fecf67" d="M 855.128906 497.128906 C 851.484375 497.128906 849.53125 495.78125 847.964844 494.703125 C 846.621094 493.773438 845.648438 493.105469 843.460938 493.105469 C 841.273438 493.105469 840.300781 493.773438 838.957031 494.703125 C 837.390625 495.78125 835.4375 497.128906 831.792969 497.128906 C 828.148438 497.128906 826.195312 495.78125 824.628906 494.703125 C 823.285156 493.773438 822.3125 493.105469 820.125 493.105469 C 817.9375 493.105469 816.96875 493.773438 815.621094 494.703125 C 814.054688 495.78125 812.105469 497.128906 808.457031 497.128906 C 804.8125 497.128906 802.863281 495.78125 801.296875 494.703125 C 799.949219 493.773438 798.980469 493.105469 796.792969 493.105469 C 794.605469 493.105469 793.632812 493.773438 792.289062 494.703125 C 790.722656 495.78125 788.773438 497.128906 785.125 497.128906 C 781.480469 497.128906 779.53125 495.78125 777.964844 494.703125 C 776.617188 493.773438 775.648438 493.105469 773.460938 493.105469 C 771.273438 493.105469 770.300781 493.773438 768.957031 494.703125 C 767.390625 495.78125 765.441406 497.128906 761.796875 497.128906 C 758.148438 497.128906 756.199219 495.78125 754.632812 494.703125 C 753.289062 493.773438 752.316406 493.105469 750.128906 493.105469 L 750.128906 488.410156 C 753.773438 488.410156 755.726562 489.753906 757.292969 490.835938 C 758.636719 491.765625 759.609375 492.433594 761.796875 492.433594 C 763.984375 492.433594 764.953125 491.765625 766.296875 490.835938 C 767.863281 489.757812 769.816406 488.410156 773.460938 488.410156 C 777.105469 488.410156 779.054688 489.757812 780.625 490.835938 C 781.96875 491.765625 782.9375 492.433594 785.125 492.433594 C 787.3125 492.433594 788.285156 491.765625 789.628906 490.835938 C 791.195312 489.753906 793.144531 488.410156 796.792969 488.410156 C 800.4375 488.410156 802.386719 489.753906 803.957031 490.835938 C 805.300781 491.765625 806.269531 492.433594 808.457031 492.433594 C 810.644531 492.433594 811.617188 491.765625 812.960938 490.835938 C 814.53125 489.753906 816.480469 488.410156 820.125 488.410156 C 823.773438 488.410156 825.722656 489.757812 827.289062 490.835938 C 828.632812 491.765625 829.605469 492.433594 831.792969 492.433594 C 833.980469 492.433594 834.953125 491.765625 836.296875 490.835938 C 837.863281 489.753906 839.816406 488.410156 843.460938 488.410156 C 847.109375 488.410156 849.058594 489.753906 850.625 490.835938 C 851.96875 491.765625 852.941406 492.433594 855.128906 492.433594 Z M 855.128906 510.140625 C 851.484375 510.140625 849.53125 508.792969 847.964844 507.714844 C 846.621094 506.785156 845.648438 506.117188 843.460938 506.117188 C 841.273438 506.117188 840.300781 506.785156 838.957031 507.714844 C 837.390625 508.792969 835.4375 510.140625 831.792969 510.140625 C 828.148438 510.140625 826.195312 508.792969 824.628906 507.714844 C 823.285156 506.785156 822.3125 506.117188 820.125 506.117188 C 817.9375 506.117188 816.96875 506.785156 815.621094 507.714844 C 814.054688 508.792969 812.105469 510.140625 808.457031 510.140625 C 804.8125 510.140625 802.863281 508.792969 801.296875 507.714844 C 799.949219 506.785156 798.980469 506.117188 796.792969 506.117188 C 794.605469 506.117188 793.632812 506.785156 792.289062 507.714844 C 790.722656 508.792969 788.773438 510.140625 785.125 510.140625 C 781.480469 510.140625 779.53125 508.792969 777.964844 507.714844 C 776.617188 506.785156 775.648438 506.117188 773.460938 506.117188 C 771.273438 506.117188 770.300781 506.785156 768.957031 507.714844 C 767.390625 508.792969 765.441406 510.140625 761.796875 510.140625 C 758.148438 510.140625 756.199219 508.792969 754.632812 507.714844 C 753.289062 506.785156 752.316406 506.117188 750.128906 506.117188 L 750.128906 501.421875 C 753.773438 501.421875 755.726562 502.765625 757.292969 503.847656 C 758.636719 504.773438 759.609375 505.445312 761.796875 505.445312 C 763.984375 505.445312 764.953125 504.773438 766.296875 503.847656 C 767.863281 502.765625 769.816406 501.421875 773.460938 501.421875 C 777.105469 501.421875 779.054688 502.765625 780.625 503.847656 C 781.96875 504.773438 782.9375 505.445312 785.125 505.445312 C 787.3125 505.445312 788.285156 504.773438 789.628906 503.847656 C 791.195312 502.765625 793.144531 501.421875 796.792969 501.421875 C 800.4375 501.421875 802.386719 502.765625 803.957031 503.847656 C 805.300781 504.773438 806.269531 505.445312 808.457031 505.445312 C 810.644531 505.445312 811.617188 504.773438 812.960938 503.847656 C 814.53125 502.765625 816.480469 501.421875 820.125 501.421875 C 823.773438 501.421875 825.722656 502.765625 827.289062 503.847656 C 828.632812 504.773438 829.605469 505.445312 831.792969 505.445312 C 833.980469 505.445312 834.953125 504.773438 836.296875 503.847656 C 837.863281 502.765625 839.816406 501.421875 843.460938 501.421875 C 847.109375 501.421875 849.058594 502.765625 850.625 503.847656 C 851.96875 504.773438 852.941406 505.445312 855.128906 505.445312 Z M 855.128906 510.140625 " fill-opacity="1" fill-rule="nonzero"/></g><g clip-path="url(#id28)"><path fill="#eb5f6b" d="M 27.46875 222.894531 C 27.46875 223.34375 27.554688 223.773438 27.726562 224.1875 C 27.898438 224.601562 28.140625 224.96875 28.457031 225.285156 C 28.773438 225.601562 29.140625 225.847656 29.554688 226.019531 C 29.96875 226.191406 30.398438 226.277344 30.84375 226.277344 C 31.292969 226.277344 31.722656 226.191406 32.136719 226.019531 C 32.550781 225.847656 32.917969 225.601562 33.234375 225.285156 C 33.550781 224.96875 33.792969 224.601562 33.964844 224.1875 C 34.136719 223.773438 34.222656 223.34375 34.222656 222.894531 C 34.222656 222.445312 34.136719 222.011719 33.964844 221.597656 C 33.792969 221.183594 33.550781 220.816406 33.234375 220.5 C 32.917969 220.183594 32.550781 219.9375 32.136719 219.765625 C 31.722656 219.59375 31.292969 219.507812 30.84375 219.507812 C 30.398438 219.507812 29.96875 219.59375 29.554688 219.765625 C 29.140625 219.9375 28.773438 220.183594 28.457031 220.5 C 28.140625 220.816406 27.898438 221.183594 27.726562 221.597656 C 27.554688 222.011719 27.46875 222.445312 27.46875 222.894531 Z M 27.46875 222.894531 " fill-opacity="1" fill-rule="nonzero"/></g><g clip-path="url(#id29)"><path fill="#eb5f6b" d="M 27.46875 242.371094 C 27.46875 242.820312 27.554688 243.25 27.726562 243.664062 C 27.898438 244.082031 28.140625 244.445312 28.457031 244.765625 C 28.773438 245.082031 29.140625 245.324219 29.554688 245.496094 C 29.96875 245.667969 30.398438 245.753906 30.84375 245.753906 C 31.292969 245.753906 31.722656 245.667969 32.136719 245.496094 C 32.550781 245.324219 32.917969 245.082031 33.234375 244.765625 C 33.550781 244.445312 33.792969 244.082031 33.964844 243.664062 C 34.136719 243.25 34.222656 242.820312 34.222656 242.371094 C 34.222656 241.921875 34.136719 241.492188 33.964844 241.074219 C 33.792969 240.660156 33.550781 240.296875 33.234375 239.976562 C 32.917969 239.660156 32.550781 239.414062 32.136719 239.246094 C 31.722656 239.074219 31.292969 238.988281 30.84375 238.988281 C 30.398438 238.988281 29.96875 239.074219 29.554688 239.246094 C 29.140625 239.414062 28.773438 239.660156 28.457031 239.976562 C 28.140625 240.296875 27.898438 240.660156 27.726562 241.074219 C 27.554688 241.492188 27.46875 241.921875 27.46875 242.371094 Z M 27.46875 242.371094 " fill-opacity="1" fill-rule="nonzero"/></g><g clip-path="url(#id30)"><path fill="#eb5f6b" d="M 27.46875 261.847656 C 27.46875 262.296875 27.554688 262.730469 27.726562 263.144531 C 27.898438 263.558594 28.140625 263.925781 28.457031 264.242188 C 28.773438 264.558594 29.140625 264.804688 29.554688 264.976562 C 29.96875 265.148438 30.398438 265.234375 30.84375 265.234375 C 31.292969 265.234375 31.722656 265.148438 32.136719 264.976562 C 32.550781 264.804688 32.917969 264.558594 33.234375 264.242188 C 33.550781 263.925781 33.792969 263.558594 33.964844 263.144531 C 34.136719 262.730469 34.222656 262.296875 34.222656 261.847656 C 34.222656 261.398438 34.136719 260.96875 33.964844 260.554688 C 33.792969 260.140625 33.550781 259.773438 33.234375 259.457031 C 32.917969 259.136719 32.550781 258.894531 32.136719 258.722656 C 31.722656 258.550781 31.292969 258.464844 30.84375 258.464844 C 30.398438 258.464844 29.96875 258.550781 29.554688 258.722656 C 29.140625 258.894531 28.773438 259.136719 28.457031 259.457031 C 28.140625 259.773438 27.898438 260.140625 27.726562 260.554688 C 27.554688 260.96875 27.46875 261.398438 27.46875 261.847656 Z M 27.46875 261.847656 " fill-opacity="1" fill-rule="nonzero"/></g><g clip-path="url(#id31)"><path fill="#eb5f6b" d="M 27.46875 281.320312 C 27.46875 281.769531 27.554688 282.203125 27.726562 282.617188 C 27.898438 283.03125 28.140625 283.398438 28.457031 283.714844 C 28.773438 284.03125 29.140625 284.277344 29.554688 284.449219 C 29.96875 284.621094 30.398438 284.707031 30.84375 284.707031 C 31.292969 284.707031 31.722656 284.621094 32.136719 284.449219 C 32.550781 284.277344 32.917969 284.03125 33.234375 283.714844 C 33.550781 283.398438 33.792969 283.03125 33.964844 282.617188 C 34.136719 282.203125 34.222656 281.769531 34.222656 281.320312 C 34.222656 280.871094 34.136719 280.441406 33.964844 280.027344 C 33.792969 279.613281 33.550781 279.246094 33.234375 278.929688 C 32.917969 278.609375 32.550781 278.367188 32.136719 278.195312 C 31.722656 278.023438 31.292969 277.9375 30.84375 277.9375 C 30.398438 277.9375 29.96875 278.023438 29.554688 278.195312 C 29.140625 278.367188 28.773438 278.609375 28.457031 278.929688 C 28.140625 279.246094 27.898438 279.613281 27.726562 280.027344 C 27.554688 280.441406 27.46875 280.871094 27.46875 281.320312 Z M 27.46875 281.320312 " fill-opacity="1" fill-rule="nonzero"/></g><path fill="#eb5f6b" d="M 8.050781 203.425781 C 8.050781 203.875 8.136719 204.304688 8.308594 204.722656 C 8.476562 205.136719 8.722656 205.5 9.039062 205.820312 C 9.355469 206.136719 9.71875 206.378906 10.132812 206.550781 C 10.546875 206.722656 10.976562 206.808594 11.425781 206.808594 C 11.875 206.808594 12.304688 206.722656 12.71875 206.550781 C 13.132812 206.378906 13.496094 206.136719 13.8125 205.820312 C 14.128906 205.5 14.375 205.136719 14.546875 204.722656 C 14.714844 204.304688 14.800781 203.875 14.800781 203.425781 C 14.800781 202.976562 14.714844 202.546875 14.546875 202.128906 C 14.375 201.714844 14.128906 201.351562 13.8125 201.03125 C 13.496094 200.714844 13.132812 200.472656 12.71875 200.300781 C 12.304688 200.128906 11.875 200.042969 11.425781 200.042969 C 10.976562 200.042969 10.546875 200.128906 10.132812 200.300781 C 9.71875 200.472656 9.355469 200.714844 9.039062 201.03125 C 8.722656 201.351562 8.476562 201.714844 8.308594 202.128906 C 8.136719 202.546875 8.050781 202.976562 8.050781 203.425781 Z M 8.050781 203.425781 " fill-opacity="1" fill-rule="nonzero"/><path fill="#eb5f6b" d="M 8.050781 222.902344 C 8.050781 223.351562 8.136719 223.785156 8.308594 224.199219 C 8.476562 224.613281 8.722656 224.980469 9.039062 225.296875 C 9.355469 225.613281 9.71875 225.859375 10.132812 226.03125 C 10.546875 226.203125 10.976562 226.289062 11.425781 226.289062 C 11.875 226.289062 12.304688 226.203125 12.71875 226.03125 C 13.132812 225.859375 13.496094 225.613281 13.8125 225.296875 C 14.128906 224.980469 14.375 224.613281 14.546875 224.199219 C 14.714844 223.785156 14.800781 223.351562 14.800781 222.902344 C 14.800781 222.453125 14.714844 222.023438 14.546875 221.609375 C 14.375 221.195312 14.128906 220.828125 13.8125 220.511719 C 13.496094 220.191406 13.132812 219.949219 12.71875 219.777344 C 12.304688 219.605469 11.875 219.519531 11.425781 219.519531 C 10.976562 219.519531 10.546875 219.605469 10.132812 219.777344 C 9.71875 219.949219 9.355469 220.191406 9.039062 220.511719 C 8.722656 220.828125 8.476562 221.195312 8.308594 221.609375 C 8.136719 222.023438 8.050781 222.453125 8.050781 222.902344 Z M 8.050781 222.902344 " fill-opacity="1" fill-rule="nonzero"/><path fill="#eb5f6b" d="M 8.050781 242.375 C 8.050781 242.824219 8.136719 243.257812 8.308594 243.671875 C 8.476562 244.085938 8.722656 244.453125 9.039062 244.769531 C 9.355469 245.085938 9.71875 245.332031 10.132812 245.503906 C 10.546875 245.675781 10.976562 245.761719 11.425781 245.761719 C 11.875 245.761719 12.304688 245.675781 12.71875 245.503906 C 13.132812 245.332031 13.496094 245.085938 13.8125 244.769531 C 14.128906 244.453125 14.375 244.085938 14.546875 243.671875 C 14.714844 243.257812 14.800781 242.824219 14.800781 242.375 C 14.800781 241.925781 14.714844 241.496094 14.546875 241.082031 C 14.375 240.667969 14.128906 240.300781 13.8125 239.984375 C 13.496094 239.664062 13.132812 239.421875 12.71875 239.25 C 12.304688 239.078125 11.875 238.992188 11.425781 238.992188 C 10.976562 238.992188 10.546875 239.078125 10.132812 239.25 C 9.71875 239.421875 9.355469 239.664062 9.039062 239.984375 C 8.722656 240.300781 8.476562 240.667969 8.308594 241.082031 C 8.136719 241.496094 8.050781 241.925781 8.050781 242.375 Z M 8.050781 242.375 " fill-opacity="1" fill-rule="nonzero"/><path fill="#eb5f6b" d="M 8.050781 261.855469 C 8.050781 262.300781 8.136719 262.734375 8.308594 263.148438 C 8.476562 263.5625 8.722656 263.929688 9.039062 264.246094 C 9.355469 264.5625 9.71875 264.808594 10.132812 264.980469 C 10.546875 265.152344 10.976562 265.238281 11.425781 265.238281 C 11.875 265.238281 12.304688 265.152344 12.71875 264.980469 C 13.132812 264.808594 13.496094 264.5625 13.8125 264.246094 C 14.128906 263.929688 14.375 263.5625 14.546875 263.148438 C 14.714844 262.734375 14.800781 262.300781 14.800781 261.855469 C 14.800781 261.40625 14.714844 260.972656 14.546875 260.558594 C 14.375 260.144531 14.128906 259.777344 13.8125 259.460938 C 13.496094 259.144531 13.132812 258.898438 12.71875 258.726562 C 12.304688 258.554688 11.875 258.46875 11.425781 258.46875 C 10.976562 258.46875 10.546875 258.554688 10.132812 258.726562 C 9.71875 258.898438 9.355469 259.144531 9.039062 259.460938 C 8.722656 259.777344 8.476562 260.144531 8.308594 260.558594 C 8.136719 260.972656 8.050781 261.40625 8.050781 261.855469 Z M 8.050781 261.855469 " fill-opacity="1" fill-rule="nonzero"/><g clip-path="url(#id32)"><path fill="#eb5f6b" d="M 567.789062 565.007812 C 567.789062 565.417969 567.867188 565.808594 568.019531 566.183594 C 568.175781 566.558594 568.394531 566.890625 568.679688 567.179688 C 568.964844 567.464844 569.296875 567.6875 569.667969 567.84375 C 570.042969 568 570.429688 568.078125 570.832031 568.078125 C 571.238281 568.078125 571.625 568 571.996094 567.84375 C 572.371094 567.6875 572.699219 567.464844 572.984375 567.179688 C 573.269531 566.890625 573.492188 566.558594 573.644531 566.183594 C 573.800781 565.808594 573.875 565.417969 573.875 565.007812 C 573.875 564.601562 573.800781 564.210938 573.644531 563.835938 C 573.492188 563.460938 573.269531 563.128906 572.984375 562.839844 C 572.699219 562.550781 572.371094 562.332031 571.996094 562.175781 C 571.625 562.019531 571.238281 561.941406 570.832031 561.941406 C 570.429688 561.941406 570.042969 562.019531 569.667969 562.175781 C 569.296875 562.332031 568.964844 562.550781 568.679688 562.839844 C 568.394531 563.128906 568.175781 563.460938 568.019531 563.835938 C 567.867188 564.210938 567.789062 564.601562 567.789062 565.007812 Z M 567.789062 565.007812 " fill-opacity="1" fill-rule="nonzero"/></g><g clip-path="url(#id33)"><path fill="#eb5f6b" d="M 567.789062 582.664062 C 567.789062 583.074219 567.867188 583.464844 568.019531 583.839844 C 568.175781 584.214844 568.394531 584.546875 568.679688 584.835938 C 568.964844 585.121094 569.296875 585.34375 569.667969 585.5 C 570.042969 585.65625 570.429688 585.734375 570.832031 585.734375 C 571.238281 585.734375 571.625 585.65625 571.996094 585.5 C 572.371094 585.34375 572.699219 585.121094 572.984375 584.835938 C 573.269531 584.546875 573.492188 584.214844 573.644531 583.839844 C 573.800781 583.464844 573.875 583.074219 573.875 582.664062 C 573.875 582.257812 573.800781 581.867188 573.644531 581.492188 C 573.492188 581.117188 573.269531 580.785156 572.984375 580.496094 C 572.699219 580.207031 572.371094 579.988281 571.996094 579.832031 C 571.625 579.675781 571.238281 579.597656 570.832031 579.597656 C 570.429688 579.597656 570.042969 579.675781 569.667969 579.832031 C 569.296875 579.988281 568.964844 580.207031 568.679688 580.496094 C 568.394531 580.785156 568.175781 581.117188 568.019531 581.492188 C 567.867188 581.867188 567.789062 582.257812 567.789062 582.664062 Z M 567.789062 582.664062 " fill-opacity="1" fill-rule="nonzero"/></g><path fill="#eb5f6b" d="M 550.28125 547.363281 C 550.28125 547.769531 550.359375 548.160156 550.511719 548.535156 C 550.667969 548.914062 550.886719 549.246094 551.171875 549.53125 C 551.457031 549.820312 551.789062 550.042969 552.160156 550.195312 C 552.535156 550.351562 552.921875 550.429688 553.324219 550.429688 C 553.730469 550.429688 554.117188 550.351562 554.488281 550.195312 C 554.863281 550.042969 555.191406 549.820312 555.476562 549.53125 C 555.761719 549.246094 555.984375 548.914062 556.136719 548.535156 C 556.292969 548.160156 556.367188 547.769531 556.367188 547.363281 C 556.367188 546.957031 556.292969 546.566406 556.136719 546.1875 C 555.984375 545.8125 555.761719 545.480469 555.476562 545.195312 C 555.191406 544.90625 554.863281 544.683594 554.488281 544.527344 C 554.117188 544.371094 553.730469 544.296875 553.324219 544.296875 C 552.921875 544.296875 552.535156 544.371094 552.160156 544.527344 C 551.789062 544.683594 551.457031 544.90625 551.171875 545.195312 C 550.886719 545.480469 550.667969 545.8125 550.511719 546.1875 C 550.359375 546.566406 550.28125 546.957031 550.28125 547.363281 Z M 550.28125 547.363281 " fill-opacity="1" fill-rule="nonzero"/><path fill="#eb5f6b" d="M 550.28125 565.019531 C 550.28125 565.425781 550.359375 565.816406 550.511719 566.191406 C 550.667969 566.570312 550.886719 566.902344 551.171875 567.1875 C 551.457031 567.476562 551.789062 567.699219 552.160156 567.851562 C 552.535156 568.007812 552.921875 568.085938 553.324219 568.085938 C 553.730469 568.085938 554.117188 568.007812 554.488281 567.851562 C 554.863281 567.699219 555.191406 567.476562 555.476562 567.1875 C 555.761719 566.902344 555.984375 566.570312 556.136719 566.191406 C 556.292969 565.816406 556.367188 565.425781 556.367188 565.019531 C 556.367188 564.613281 556.292969 564.222656 556.136719 563.84375 C 555.984375 563.46875 555.761719 563.136719 555.476562 562.851562 C 555.191406 562.5625 554.863281 562.339844 554.488281 562.183594 C 554.117188 562.027344 553.730469 561.953125 553.324219 561.953125 C 552.921875 561.953125 552.535156 562.027344 552.160156 562.183594 C 551.789062 562.339844 551.457031 562.5625 551.171875 562.851562 C 550.886719 563.136719 550.667969 563.46875 550.511719 563.84375 C 550.359375 564.222656 550.28125 564.613281 550.28125 565.019531 Z M 550.28125 565.019531 " fill-opacity="1" fill-rule="nonzero"/><path fill="#eb5f6b" d="M 550.28125 582.671875 C 550.28125 583.078125 550.359375 583.46875 550.511719 583.84375 C 550.667969 584.21875 550.886719 584.550781 551.171875 584.839844 C 551.457031 585.128906 551.789062 585.347656 552.160156 585.503906 C 552.535156 585.660156 552.921875 585.738281 553.324219 585.738281 C 553.730469 585.738281 554.117188 585.660156 554.488281 585.503906 C 554.863281 585.347656 555.191406 585.128906 555.476562 584.839844 C 555.761719 584.550781 555.984375 584.21875 556.136719 583.84375 C 556.292969 583.46875 556.367188 583.078125 556.367188 582.671875 C 556.367188 582.261719 556.292969 581.871094 556.136719 581.496094 C 555.984375 581.121094 555.761719 580.789062 555.476562 580.5 C 555.191406 580.214844 554.863281 579.992188 554.488281 579.835938 C 554.117188 579.679688 553.730469 579.601562 553.324219 579.601562 C 552.921875 579.601562 552.535156 579.679688 552.160156 579.835938 C 551.789062 579.992188 551.457031 580.214844 551.171875 580.5 C 550.886719 580.789062 550.667969 581.121094 550.511719 581.496094 C 550.359375 581.871094 550.28125 582.261719 550.28125 582.671875 Z M 550.28125 582.671875 " fill-opacity="1" fill-rule="nonzero"/><g clip-path="url(#id34)"><path fill="#eb5f6b" d="M 532.773438 529.714844 C 532.773438 530.121094 532.851562 530.515625 533.007812 530.890625 C 533.160156 531.265625 533.378906 531.597656 533.664062 531.886719 C 533.949219 532.171875 534.28125 532.394531 534.652344 532.550781 C 535.027344 532.707031 535.414062 532.785156 535.816406 532.785156 C 536.222656 532.785156 536.609375 532.707031 536.984375 532.550781 C 537.355469 532.394531 537.683594 532.171875 537.96875 531.886719 C 538.253906 531.597656 538.476562 531.265625 538.628906 530.890625 C 538.785156 530.515625 538.863281 530.121094 538.863281 529.714844 C 538.863281 529.308594 538.785156 528.917969 538.628906 528.542969 C 538.476562 528.167969 538.253906 527.835938 537.96875 527.546875 C 537.683594 527.257812 537.355469 527.039062 536.984375 526.882812 C 536.609375 526.726562 536.222656 526.648438 535.816406 526.648438 C 535.414062 526.648438 535.027344 526.726562 534.652344 526.882812 C 534.28125 527.039062 533.949219 527.257812 533.664062 527.546875 C 533.378906 527.835938 533.160156 528.167969 533.007812 528.542969 C 532.851562 528.917969 532.773438 529.308594 532.773438 529.714844 Z M 532.773438 529.714844 " fill-opacity="1" fill-rule="nonzero"/></g><g clip-path="url(#id35)"><path fill="#eb5f6b" d="M 532.773438 547.367188 C 532.773438 547.773438 532.851562 548.164062 533.007812 548.542969 C 533.160156 548.917969 533.378906 549.25 533.664062 549.535156 C 533.949219 549.824219 534.28125 550.046875 534.652344 550.203125 C 535.027344 550.359375 535.414062 550.433594 535.816406 550.433594 C 536.222656 550.433594 536.609375 550.359375 536.984375 550.203125 C 537.355469 550.046875 537.683594 549.824219 537.96875 549.535156 C 538.253906 549.25 538.476562 548.917969 538.628906 548.542969 C 538.785156 548.164062 538.863281 547.773438 538.863281 547.367188 C 538.863281 546.960938 538.785156 546.570312 538.628906 546.195312 C 538.476562 545.816406 538.253906 545.484375 537.96875 545.199219 C 537.683594 544.910156 537.355469 544.6875 536.984375 544.535156 C 536.609375 544.378906 536.222656 544.300781 535.816406 544.300781 C 535.414062 544.300781 535.027344 544.378906 534.652344 544.535156 C 534.28125 544.6875 533.949219 544.910156 533.664062 545.199219 C 533.378906 545.484375 533.160156 545.816406 533.007812 546.195312 C 532.851562 546.570312 532.773438 546.960938 532.773438 547.367188 Z M 532.773438 547.367188 " fill-opacity="1" fill-rule="nonzero"/></g><g clip-path="url(#id36)"><path fill="#eb5f6b" d="M 532.773438 565.023438 C 532.773438 565.429688 532.851562 565.820312 533.007812 566.199219 C 533.160156 566.574219 533.378906 566.90625 533.664062 567.191406 C 533.949219 567.480469 534.28125 567.703125 534.652344 567.859375 C 535.027344 568.011719 535.414062 568.089844 535.816406 568.089844 C 536.222656 568.089844 536.609375 568.011719 536.984375 567.859375 C 537.355469 567.703125 537.683594 567.480469 537.96875 567.191406 C 538.253906 566.90625 538.476562 566.574219 538.628906 566.199219 C 538.785156 565.820312 538.863281 565.429688 538.863281 565.023438 C 538.863281 564.617188 538.785156 564.226562 538.628906 563.851562 C 538.476562 563.472656 538.253906 563.140625 537.96875 562.855469 C 537.683594 562.566406 537.355469 562.34375 536.984375 562.191406 C 536.609375 562.035156 536.222656 561.957031 535.816406 561.957031 C 535.414062 561.957031 535.027344 562.035156 534.652344 562.191406 C 534.28125 562.34375 533.949219 562.566406 533.664062 562.855469 C 533.378906 563.140625 533.160156 563.472656 533.007812 563.851562 C 532.851562 564.226562 532.773438 564.617188 532.773438 565.023438 Z M 532.773438 565.023438 " fill-opacity="1" fill-rule="nonzero"/></g><g clip-path="url(#id37)"><path fill="#eb5f6b" d="M 532.773438 582.679688 C 532.773438 583.085938 532.851562 583.476562 533.007812 583.855469 C 533.160156 584.230469 533.378906 584.5625 533.664062 584.847656 C 533.949219 585.136719 534.28125 585.359375 534.652344 585.515625 C 535.027344 585.667969 535.414062 585.746094 535.816406 585.746094 C 536.222656 585.746094 536.609375 585.667969 536.984375 585.515625 C 537.355469 585.359375 537.683594 585.136719 537.96875 584.847656 C 538.253906 584.5625 538.476562 584.230469 538.628906 583.855469 C 538.785156 583.476562 538.863281 583.085938 538.863281 582.679688 C 538.863281 582.273438 538.785156 581.882812 538.628906 581.507812 C 538.476562 581.128906 538.253906 580.796875 537.96875 580.511719 C 537.683594 580.222656 537.355469 580 536.984375 579.84375 C 536.609375 579.691406 536.222656 579.613281 535.816406 579.613281 C 535.414062 579.613281 535.027344 579.691406 534.652344 579.84375 C 534.28125 580 533.949219 580.222656 533.664062 580.511719 C 533.378906 580.796875 533.160156 581.128906 533.007812 581.507812 C 532.851562 581.882812 532.773438 582.273438 532.773438 582.679688 Z M 532.773438 582.679688 " fill-opacity="1" fill-rule="nonzero"/></g></svg>