<svg width="16" height="16" viewBox="0 0 16 16" fill="none" xmlns="http://www.w3.org/2000/svg">
<path d="M8.66675 6.00002L7.33341 6.00002L7.33341 4.66669L8.66675 4.66669L8.66675 6.00002ZM8.66675 11.3334L7.33341 11.3334L7.33341 7.33335L8.66675 7.33335L8.66675 11.3334ZM8.00675 14.6667C11.6867 14.6667 14.6667 11.68 14.6667 8.00002C14.6667 4.32002 11.6867 1.33335 8.00675 1.33335C4.32008 1.33335 1.33341 4.32002 1.33341 8.00002C1.33341 11.68 4.32008 14.6667 8.00675 14.6667ZM8.00008 2.66669C10.9467 2.66669 13.3334 5.05335 13.3334 8.00002C13.3334 10.9467 10.9467 13.3334 8.00008 13.3334C5.05341 13.3334 2.66675 10.9467 2.66675 8.00002C2.66675 5.05335 5.05341 2.66669 8.00008 2.66669Z" fill="#4B4B4B"/>
</svg>
